<?xml version="1.0" standalone="no"?>
<!DOCTYPE svg PUBLIC "-//W3C//DTD SVG 1.1//EN" "http://www.w3.org/Graphics/SVG/1.1/DTD/svg11.dtd" >
<svg xmlns="http://www.w3.org/2000/svg" xmlns:xlink="http://www.w3.org/1999/xlink" version="1.1">
<metadata></metadata>
<defs>
<font id="afta_serifitalic" horiz-adv-x="589" >
<font-face units-per-em="1000" ascent="800" descent="-200" />
<missing-glyph horiz-adv-x="282" />
<glyph unicode="ff" horiz-adv-x="646" d="M441 726q-60 0 -103.5 -44.5t-59.5 -119.5l-10 -46h98l-9 -43h-98l-137 -646l79 -16l-4 -22h-227l4 21l83 17l139 646h-86l9 43h86l10 46q23 109 84.5 162.5t153.5 53.5q123 0 140 -83q74 83 200 83q48 0 104 -31q-4 -15 -14.5 -52t-16.5 -56h-20l-1 77q-36 10 -63 10 q-25 0 -45.5 -2.5t-36.5 -10t-27 -13.5t-20.5 -21t-14.5 -22.5t-11 -29t-8 -30.5t-8 -35l-10 -46h129l-9 -43h-129l-92 -435q11 -2 38.5 -8.5t40.5 -9.5l-4 -20h-228l4 21l84 19l94 433h-86l9 43h86q26 121 1 165.5t-98 44.5z" />
<glyph unicode="fi" horiz-adv-x="626" d="M569 37l75 -17l-4 -20h-226l4 20l82 16l93 438h-318l-93 -437l80 -17l-4 -20h-227l4 20l83 16l93 438h-79l9 43h79l20 93q23 104 87 157t148 53q13 0 25 -0.5t23.5 -3t19.5 -4t19 -5.5t16 -6t16 -7.5l14 -7t15 -8.5t14 -8l8 35h88l-19 -89h-101q-25 25 -63 43.5t-75 18.5 q-71 0 -114.5 -53t-58.5 -119l-19 -89h388z" />
<glyph unicode="fl" horiz-adv-x="622" d="M193 40l77 -19l-4 -21h-227l4 21l83 19l92 435h-88l10 44h88l19 89q25 120 84 167.5t153 47.5q48 0 86.5 -8t72.5 -27t47.5 -58t1.5 -95l-126 -595q11 -4 37.5 -10t37.5 -9l-4 -21h-226l4 21l82 19l126 595q15 67 -26.5 101.5t-115.5 34.5q-75 -2 -113.5 -45t-53.5 -118 l-19 -89h127l-10 -44h-127z" />
<glyph unicode="st" horiz-adv-x="852" d="M482 381l-2 74q-54 31 -138 31q-50 0 -82 -19t-45 -72q-9 -44 13.5 -62t84.5 -34q106 -24 149 -60t30 -96q-16 -74 -79.5 -116t-155.5 -42q-66 0 -117.5 17t-77.5 35q0 1 0.5 1.5t1 2.5l1 4t1.5 6.5t2.5 10t4 14.5t5 19t6.5 25t9 32h22l2 -72q84 -45 150 -45 q136 0 156 105q7 29 -17.5 52t-59.5 35.5t-90 24.5q-134 42 -112 143q5 20 16 39.5t33 42.5t62.5 37t94.5 14q76 0 144 -26q20 56 45.5 108t62.5 104t85.5 83.5t101.5 31.5q68 0 89.5 -36t8.5 -93q-3 -17 -10 -37.5t-13.5 -36t-16.5 -36t-15.5 -30.5t-15.5 -26l-9 -17h134 l-9 -43h-134l-71 -335q-14 -67 -8 -84.5t44 -17.5q35 0 77 17l-11 -53q-52 -13 -101 -13q-52 0 -70.5 24t-3.5 92l78 370h-101l9 43h97q88 150 100 203q7 36 -7.5 52.5t-54.5 16.5q-64 0 -130 -81.5t-114 -219.5q-5 -20 -15.5 -59.5t-12.5 -47.5h-21z" />
<glyph unicode="ti" horiz-adv-x="570" d="M522 477l-76 19l4 21h148l-99 -477l74 -19l-4 -21q-41 -1 -133.5 -8t-140.5 -7q-30 0 -59 5.5t-58 17.5t-43.5 36.5t-7.5 58.5l79 371h-101l9 43h100q9 24 28 80t25 74h47l-113 -533q-6 -29 2.5 -49.5t23 -30.5t38.5 -15.5t36.5 -6t29.5 -0.5q49 0 99 8zM639 710h-84 l18 85h84z" />
<glyph unicode="th" horiz-adv-x="933" d="M858 40l80 -19l-4 -21h-228l4 21l83 19l60 279q15 72 -2 117.5t-72 45.5q-80 0 -145.5 -46.5t-76.5 -97.5q-12 -58 -34 -168t-34 -164q-21 -6 -78.5 -13.5t-111.5 -7.5q-31 0 -60 5.5t-57.5 17.5t-43 36.5t-7.5 58.5l79 371h-102l9 43h101l52 154h46l-33 -154h134l-9 -43 h-134l-71 -336q-6 -29 2.5 -49.5t23 -30.5t39 -15.5t37 -6t30.5 -0.5q36 0 68.5 13t36.5 29l144 678q-58 14 -75 19l5 21h145l-80 -373q73 56 126 81t114 25q71 0 98.5 -53t-1.5 -164z" />
<glyph unicode="ck" horiz-adv-x="1099" d="M590 490l-31 -105h-21l-1 72q-66 29 -111 29q-44 0 -79 -9t-70 -31.5t-61 -68t-40 -112.5q-15 -58 -11 -99t15 -67.5t36 -41.5t51.5 -21t61.5 -6q50 0 114 24.5t101.5 46.5t104.5 65q4 2 6.5 3.5t6 4t6.5 4.5l123 577q-62 15 -76 19l4 21h149l-84 -395q48 71 118.5 110.5 t133.5 39.5q62 0 91.5 -40.5t17.5 -99.5q-23 -103 -198 -210l90 -163l66 -17l-4 -20h-228l4 21l80 16l-75 132q-28 -13 -63 -26l9 53q88 35 165 89.5t90 113.5q10 45 -11.5 72.5t-63.5 27.5q-66 0 -146.5 -63.5t-97.5 -137.5l-29 -134q-39 -32 -71 -54.5t-89 -56t-122 -51.5 t-132 -18q-273 0 -214 279q32 146 114 207.5t217 61.5q94 0 154 -42z" />
<glyph unicode="mm" horiz-adv-x="1447" d="M188 477l-76 19l4 21h140l-11 -105q35 53 92 87t106 34q39 0 65.5 -30.5t24.5 -89.5q43 57 99 88.5t116 31.5q86 0 94 -125q38 59 95.5 92t110.5 33q87 0 92 -118q39 56 95.5 87t117.5 31q122 0 78 -209l-59 -283l79 -19l-4 -22h-146l70 330q8 39 10 64t-2.5 47.5 t-21 32.5t-46.5 10q-71 0 -119 -49t-61 -115l-60 -280l74 -19l-4 -21h-147l68 320q19 79 7 121.5t-63 42.5q-70 0 -119 -49.5t-62 -112.5l-58 -281l79 -19l-4 -22h-146l70 330q8 39 10 64t-2.5 47t-21.5 32.5t-47 10.5q-71 0 -118.5 -49t-60.5 -115l-60 -280l74 -19l-4 -21 h-146l68 320q19 81 7 122.5t-63 41.5q-70 0 -119.5 -50.5t-61.5 -113.5l-60 -279l78 -19l-4 -22h-228l4 21l84 17z" />
<glyph unicode="oo" horiz-adv-x="984" d="M816 533q248 0 190 -272q-29 -142 -98 -210t-200 -68q-121 0 -183 97q-100 -97 -231 -97q-66 0 -110.5 22.5t-63 61t-22.5 89t10 105.5q29 136 97.5 204t198.5 68q125 0 186 -96q102 96 226 96zM178 261q-11 -53 -12 -93t8.5 -64.5t22 -40.5t33 -23t36.5 -9t38 -2 q25 0 41.5 1.5t46.5 14t51.5 35t45 69t37.5 112.5q10 46 11 83t-4 60t-18.5 40t-25.5 25t-32.5 12.5t-32 5t-30.5 0.5q-22 0 -32.5 -0.5t-32.5 -4.5t-35 -12t-32.5 -24t-32.5 -39.5t-27 -60.5t-24 -85zM584 261q-12 -66 -10 -117.5t37.5 -83t106.5 -31.5q25 0 40 1.5 t43.5 14t48.5 35t42 69t36 112.5q10 46 11.5 82.5t-2.5 60t-16 40.5t-23 25t-30.5 12.5t-31 5t-30.5 0.5q-54 0 -94 -18t-64.5 -51.5t-39 -70.5t-24.5 -86z" />
<glyph unicode="rt" horiz-adv-x="717" d="M513 104l91 432l48 135h46l-33 -154h134l-9 -43h-134l-71 -335q-14 -67 -8 -84.5t45 -17.5q43 0 77 18l-11 -52q-49 -15 -101 -15t-70.5 24t-3.5 92zM188 477l-75 19l4 21h132l-9 -113q36 65 82 96.5t90 31.5q52 0 78 -15l-33 -119h-22l-1 79q-19 3 -33 3q-24 0 -41 -3 t-41.5 -16t-42.5 -36.5t-37 -68.5t-33 -107l-44 -211l72 -17l-4 -21h-218l4 21l79 17z" />
<glyph unicode="tt" horiz-adv-x="653" d="M345 474l9 43h180l53 155h46l-33 -155h133l-9 -43h-133l-71 -335q-14 -67 -8 -84.5t45 -17.5q42 0 76 17l-11 -51q-67 -15 -99 -15q-70 0 -85 40q-60 -43 -138 -43h-8h-26t-26 1.5t-27.5 4t-25 7.5t-22.5 12.5t-17 19.5t-12 27t-2.5 35.5t5.5 45.5l71 335h-101l9 43h100 l54 155h45l-113 -533q-3 -15 -3.5 -28t3 -22.5t7 -17t12 -13t14.5 -9.5t17 -6t17.5 -3.5t18.5 -2t16.5 -0.5h14.5h6q26 0 70.5 17.5t49.5 43.5l80 377h-182z" />
<glyph unicode="Wh" horiz-adv-x="1701" d="M347 695l-73 -15l82 -630l310 666h85l23 -671l244 470q49 93 90 152t75 87.5t60 37.5t58 9q68 0 93 -37t7 -122l-50 -236q38 50 100.5 85t123.5 35q73 0 104 -55t8 -162l-58 -270l76 -17l-4 -22h-223l4 21l82 18l61 277q16 76 -7 118t-83 42q-66 0 -127.5 -46t-73.5 -104 l-61 -287q64 -14 78 -18l-4 -21h-226l4 22l83 16l123 580q17 76 9 111t-47 35q-38 0 -77 -47.5t-122 -205.5l-276 -511h-102l-14 645h-19l-291 -645h-95l-105 679l-68 17l5 20h223z" />
<glyph unicode="wh" horiz-adv-x="1357" d="M309 494l-91 -15l15 -429l245 467h67l28 -468l179 427q-11 2 -33 16.5t-47.5 40t-39 70t-2.5 95.5q25 115 185 115q58 0 123.5 -8.5t103.5 -16.5t37 -9l-77 -367q37 48 101 84.5t125 36.5q75 0 106 -55t8 -165l-58 -273l76 -18l-4 -22h-226l4 21l85 19l60 280 q16 78 -8 120.5t-84 42.5q-66 0 -128 -46t-74 -106l-62 -291l78 -19l-4 -21h-228l4 22l84 16l149 704q-106 42 -194 42q-125 0 -143 -91q-9 -26 -1 -55.5t24 -55.5t54 -44t89 -21l-226 -517h-82l-21 485l-246 -485h-82l-22 480l-74 14l4 23h227z" />
<glyph unicode="St" horiz-adv-x="943" d="M735 517h101q86 148 97 200q14 71 -64 71q-54 0 -113 -41t-92 -122l-10 -41h-22l-1 72q-75 36 -172 36q-71 0 -129 -39t-72 -103q-13 -61 18 -92.5t108 -55.5q51 -16 83.5 -30t72 -40.5t54 -67.5t3.5 -94q-12 -55 -48.5 -95t-85 -59.5t-92.5 -27.5t-86 -8q-143 0 -213 58 l24 116h20l1 -72q78 -54 178 -54q82 0 147 41t79 101q3 18 4 31t-4.5 35t-20 38.5t-47 35t-79.5 31.5h1q-115 34 -164 81.5t-30 128.5q15 74 93 127t194 53q122 0 187 -25q103 122 227 122q123 0 98 -127q-8 -38 -28.5 -84t-35.5 -72t-17 -28h133l-9 -42h-133l-71 -337 q-14 -66 -8 -83.5t44 -17.5q34 0 76 16l-11 -52q-52 -13 -100 -13q-51 0 -69 23.5t-5 91.5l79 372h-99z" />
<glyph unicode="ch" horiz-adv-x="1146" d="M332 31q85 0 185 43l-12 -58q-104 -31 -183 -31q-136 0 -188.5 68t-21.5 211q31 146 112.5 207.5t214.5 61.5q61 0 113 -28l25 118q22 102 59 143.5t104 41.5q69 0 95 -37.5t8 -123.5l-50 -236q43 52 104 86.5t123 34.5q74 0 105 -56t8 -164l-58 -272l76 -18l-4 -22h-226 l4 21l83 19l61 279q17 78 -6 120.5t-84 42.5q-68 0 -129.5 -46t-73.5 -106l-62 -290l78 -19l-4 -21h-228l4 22l84 16l124 585q17 77 8.5 112t-48.5 35q-38 0 -62.5 -34t-45.5 -113l-61 -237h-20l-2 72q-60 29 -112 29q-44 0 -78.5 -8.5t-70 -31t-61.5 -68t-40 -113.5 q-14 -58 -10 -99t14.5 -67.5t35 -41.5t51 -21t62.5 -6z" />
<glyph unicode="Ch" horiz-adv-x="1257" d="M715 574l2 85q-54 31 -139 31q-24 0 -58.5 -9.5t-80 -34.5t-86.5 -61t-77.5 -96t-53.5 -133q-14 -86 1.5 -150.5t43.5 -96.5t67.5 -51t63 -23t40.5 -4q98 0 215 78l-15 -69q-35 -20 -94 -39t-117 -21q-118 0 -191.5 51.5t-95.5 134.5t0 189q35 170 153.5 273.5 t293.5 103.5q72 0 150 -23q24 50 56 71.5t78 21.5q68 0 93.5 -37t7.5 -122l-49 -234q42 50 102.5 84t121.5 34q73 0 103.5 -55t7.5 -162l-57 -270l75 -17l-4 -22h-223l4 21l82 18l59 277q16 77 -6.5 118.5t-81.5 41.5q-66 0 -127.5 -46t-73.5 -104l-61 -287l77 -18l-4 -21 h-225l4 22l83 16l123 580q17 76 9 110.5t-48 34.5q-33 0 -61.5 -25.5t-40.5 -73.5l-26 -91h-20z" />
<glyph unicode=" "  horiz-adv-x="282" />
<glyph unicode="&#x09;" horiz-adv-x="282" />
<glyph unicode="&#xa0;" horiz-adv-x="282" />
<glyph unicode="!" horiz-adv-x="284" d="M288 517l-87 -294h-21l37 294l46 213h71zM103 -1l18 84h85l-18 -84h-85z" />
<glyph unicode="&#x22;" horiz-adv-x="455" d="M443 493h-46l51 237h46zM296 730h46l-51 -237h-46z" />
<glyph unicode="#" horiz-adv-x="594" d="M521 459h-167q-14 -37 -38.5 -102t-38.5 -102h167q13 36 39 102t38 102zM309 459h-130l7 31h135l82 220h47l-84 -220h168l82 220h47l-84 -220h95l-7 -31h-101l-77 -204h103l-7 -31h-106q-17 -40 -43.5 -113.5t-41.5 -109.5h-45l83 223h-168q-31 -86 -57 -154t-26 -69h-46 l84 223h-116l7 31h122z" />
<glyph unicode="$" horiz-adv-x="605" d="M412 344l-68 -317q70 16 125 58t65 89q6 13 4 34t-9.5 42t-37.5 46.5t-79 47.5zM394 409l64 300q-68 -13 -123.5 -52t-66.5 -94q-21 -94 126 -154zM513 820l-15 -69q142 -9 204 -47l-10 -50q-89 47 -203 55l-65 -307q19 -7 31.5 -12.5t30.5 -13.5t30.5 -15t27.5 -16.5 t24.5 -19.5t20 -22t16 -26t9.5 -29.5t3.5 -34.5t-4.5 -39q-10 -45 -38.5 -80.5t-69.5 -57.5t-83 -35t-88 -20l-21 -100h-31l21 99q-157 6 -226 60l14 65q89 -73 222 -77l69 322q-114 35 -162.5 85t-31.5 129q15 68 89.5 122t189.5 65l15 69h31z" />
<glyph unicode="%" horiz-adv-x="1020" d="M886 383q156 0 115 -200q-14 -63 -36.5 -104t-51.5 -59t-53 -23.5t-56 -5.5q-18 0 -31.5 1.5t-30 6t-28 12.5t-21.5 22.5t-14.5 34t-4 49t7.5 66.5q24 100 72 150t132 50zM806 6q59 0 98 40.5t58 136.5q20 104 2 143t-82 39q-60 0 -99.5 -41.5t-60.5 -144.5 q-21 -97 1.5 -135t82.5 -38zM964 740h51l-724 -759h-51zM349 353q58 0 96 38.5t59 133.5q20 100 -2 139t-79 39q-59 0 -98 -39.5t-62 -141.5q-19 -95 6 -132t80 -37zM428 726q46 0 74.5 -17t38 -44.5t10.5 -64t-7 -75.5q-47 -193 -199 -193q-160 0 -122 193 q24 100 72.5 150.5t132.5 50.5z" />
<glyph unicode="&#x26;" horiz-adv-x="759" d="M562 728q77 -1 111.5 -27.5t22.5 -86.5q-7 -27 -22 -66q101 -18 135 -74t12 -168q-36 -159 -179 -250q62 -30 104 -30q81 0 165 41l-12 -53q-60 -30 -165 -30q-86 0 -149 45q-123 -50 -262 -47q-152 0 -202 68t-22 204q26 116 90 171.5t186 73.5q-5 85 2 115 q25 114 185 114zM375 471q-97 -22 -141 -62t-68 -151q-27 -132 13 -183t155 -51q90 0 215 33q-127 152 -174 414zM657 515q-61 -110 -178 -252q34 -75 54.5 -108t56.5 -69q129 56 164 224q9 42 9.5 72.5t-5 51t-20.5 36t-33.5 25t-47.5 20.5zM645 598q11 51 -14 68.5 t-78 17.5q-58 0 -90.5 -17t-43.5 -69q-11 -49 7.5 -133.5t46.5 -158.5q55 77 80.5 114t54 89t37.5 89z" />
<glyph unicode="'" horiz-adv-x="286" d="M279 493h-45l51 237h45z" />
<glyph unicode="(" horiz-adv-x="315" d="M426 753h36q-45 -52 -93 -118t-102 -171t-72 -195q-43 -190 54 -482h-29q-9 15 -20 34t-28 55.5t-29.5 79t-22.5 92t-10 107.5t12 114q26 127 110 255t194 229z" />
<glyph unicode=")" horiz-adv-x="308" d="M182 753h36q149 -249 99 -484q-51 -229 -304 -482h-30q73 101 111.5 159t85 151t64.5 172q45 215 -62 484z" />
<glyph unicode="*" horiz-adv-x="329" d="M287 577l-113 -54l-7 21l117 53l-94 53l15 21l91 -54l24 114h25l-24 -114l111 54l7 -21l-117 -53l94 -53l-15 -21l-89 54l-24 -115h-25z" />
<glyph unicode="+" horiz-adv-x="600" d="M286 509h45v-235h236v-42h-236v-231h-45v231h-227v42h227v235z" />
<glyph unicode="," horiz-adv-x="278" d="M106 0l17 84h87q-5 -69 -13 -99q-17 -83 -56.5 -124t-88.5 -48l7 35q22 2 39.5 13.5t26.5 22t18.5 37t12 36.5t10.5 43h-60z" />
<glyph unicode="-" horiz-adv-x="398" d="M131 304h281l-11 -51h-281z" />
<glyph unicode="." horiz-adv-x="271" d="M105 -1l18 84h85l-18 -84h-85z" />
<glyph unicode="/" horiz-adv-x="347" d="M1 -20l469 773h47l-469 -772q-8 0 -24.5 -0.5t-22.5 -0.5z" />
<glyph unicode="0" horiz-adv-x="670" d="M497 678q-104 0 -178 -77.5t-112 -259.5q-68 -316 151 -316q96 0 171 78t109 245q72 330 -141 330zM506 723q32 0 59 -5t58 -18.5t52 -41t35 -67t13 -102t-18 -141.5q-19 -91 -54 -160t-72 -106.5t-82 -61t-79 -30t-69 -6.5q-24 0 -47 3t-50 13t-49 26t-41 44.5t-29 65.5 t-9 91.5t15 120.5q20 91 52 159.5t67.5 109t79.5 65t83.5 33t84.5 8.5z" />
<glyph unicode="1" horiz-adv-x="433" d="M123 21l83 19l135 633q-46 -5 -90 -22l6 31q13 9 40 23t41 22h80l-146 -687q11 -4 37.5 -10t37.5 -9l-4 -21h-224z" />
<glyph unicode="2" horiz-adv-x="601" d="M492 48l36 80h22l-17 -128h-490q13 58 38 106.5t55 83.5t73.5 67.5t83.5 54.5t96 48q147 68 171 177q11 59 -20.5 98.5t-111.5 43.5q-104 0 -191 -87q-21 -53 -28 -67h-21l14 106q11 11 39.5 30.5t85.5 42t109 22.5q111 0 158.5 -53.5t29.5 -135.5q-33 -150 -230 -236 q-216 -99 -258 -253h356z" />
<glyph unicode="3" horiz-adv-x="640" d="M197 555l16 106q148 66 261 66q98 0 156 -41.5t41 -124.5q-16 -69 -67.5 -115.5t-116.5 -52.5q84 -12 128 -63.5t26 -127.5q-19 -91 -115 -155t-233 -64q-174 0 -237 37q13 51 32 114h21l1 -76q104 -34 186 -34q61 0 111.5 19t80.5 48.5t47 57.5t22 53q14 57 -30.5 106 t-137.5 49h-85l11 48h85q162 0 193 141q11 54 -20 93.5t-109 39.5q-82 0 -213 -52q-7 -17 -32 -70q-6 0 -12.5 -1t-9.5 -1z" />
<glyph unicode="4" horiz-adv-x="696" d="M131 244h355l92 430q-290 -277 -447 -430zM510 41l78 -20l-4 -21h-230l3 21l85 19l35 161h-388l13 62q83 78 246 232t246 232h62l-103 -483h163l-9 -43h-163z" />
<glyph unicode="5" horiz-adv-x="640" d="M707 597h-20l-2 79h-365q-11 -35 -37.5 -110.5t-39.5 -118.5q86 36 166 36q128 0 195.5 -62t45.5 -171q-25 -118 -118.5 -184t-220.5 -66q-167 0 -246 54q6 18 16.5 55.5t15.5 55.5h21l1 -72q112 -55 200 -55q106 0 174 66.5t85 145.5q16 81 -24.5 136.5t-149.5 55.5 q-82 0 -194 -42q-6 4 -23 15t-25 17q77 210 106 283h476q-6 -23 -19 -61t-18 -57z" />
<glyph unicode="6" horiz-adv-x="622" d="M189 219q-9 -44 2 -86.5t47.5 -72.5t90.5 -30q116 0 187 92q57 75 50 158q-7 82 -76 108q-24 9 -55 9q-41 0 -81.5 -18t-69 -43.5t-51 -52t-33.5 -44t-11 -20.5zM666 554l-1 72q-89 51 -176 51q-104 0 -178.5 -86t-99.5 -196q-2 -13 -9 -48.5t-13 -69.5 q31 69 108.5 118.5t147.5 49.5q131 0 178 -90q41 -78 1 -175q-41 -101 -143 -153q-72 -37 -160 -37q-63 0 -104.5 17.5t-69.5 59.5t-28.5 112.5t18.5 176.5q42 195 138.5 283t224.5 88q28 0 51 -3t49.5 -12.5t37 -13.5t42.5 -20t37 -18l-30 -106h-21z" />
<glyph unicode="7" horiz-adv-x="633" d="M252 559l-8 151h491q-15 -75 -72 -126l-206 -195q-73 -81 -95 -179l-44 -209h-68l44 209q14 66 41.5 110t70.5 90q120 123 264 263h-360q-5 -15 -18 -54.5t-19 -59.5h-21z" />
<glyph unicode="8" horiz-adv-x="613" d="M443 445q8 2 28.5 11t48.5 24t51 38.5t29 48.5q9 43 -12.5 69.5t-54 35t-74.5 8.5q-61 0 -118 -26t-68 -78q-5 -20 7.5 -39.5t30 -32.5t47.5 -27t45.5 -19t39.5 -13zM365 402q-82 -24 -136.5 -77t-71.5 -130q-13 -57 10.5 -95.5t64 -54t90.5 -15.5q84 0 153 45t84 120 q19 90 -42 145t-152 62zM312 416q-19 8 -37.5 20t-39.5 31t-31.5 45.5t-4.5 54.5q16 76 86.5 117.5t184.5 41.5q113 0 163 -47.5t35 -118.5q-13 -54 -53.5 -85t-118.5 -57q75 -39 113 -92t21 -131q-21 -102 -109 -157t-210 -55q-58 0 -101.5 10.5t-77 35t-43 65t0.5 101.5 q9 44 36.5 83.5t63 66.5t66 44.5t56.5 26.5z" />
<glyph unicode="9" horiz-adv-x="622" d="M611 497q10 43 -1.5 85.5t-48 73t-90.5 30.5q-117 0 -187 -92q-57 -75 -50 -158q7 -82 76 -108q24 -9 55 -9q41 0 81.5 18t69 43.5t51 52t33.5 44t11 20.5zM134 162l2 -72q85 -51 175 -51q104 0 178.5 86t99.5 196q2 13 9 48.5t13 69.5q-31 -71 -108 -119.5t-148 -48.5 q-131 0 -178 90q-40 78 0 175q41 101 142 153q72 37 160 37q62 0 104 -17.5t70.5 -59.5t29 -112.5t-19.5 -176.5q-41 -194 -138 -282.5t-225 -88.5q-28 0 -51 3t-49.5 12.5t-37 13.5t-42.5 20t-37 18l30 106h21z" />
<glyph unicode=":" horiz-adv-x="301" d="M116 -1l18 84h84l-18 -84h-84zM293 433h-84l17 84h84z" />
<glyph unicode=";" horiz-adv-x="307" d="M176 0h-59l17 84h86q-5 -69 -13 -99q-17 -82 -56.5 -123t-87.5 -48l7 34q22 2 39 13t26.5 22t18.5 35.5t12 37.5t10 44zM293 433h-84l17 84h84z" />
<glyph unicode="&#x3c;" horiz-adv-x="621" d="M590 511v-53l-506 -208l515 -201v-51l-540 226v54z" />
<glyph unicode="=" horiz-adv-x="598" d="M59 169h501v-41h-501v41zM59 378h501v-43h-501v43z" />
<glyph unicode="&#x3e;" horiz-adv-x="618" d="M54 458v53l531 -233v-54l-540 -226v51l515 201z" />
<glyph unicode="?" horiz-adv-x="601" d="M229 0l17 84h85l-17 -84h-85zM239 533l-1 184q95 32 199 32q111 0 169.5 -43t39.5 -133q-9 -40 -35 -75t-50.5 -54.5t-65.5 -46.5q-39 -28 -52 -38t-42 -35t-44.5 -49.5t-24.5 -53.5h-40q35 119 158 200q38 26 55.5 40.5t40 45t29.5 66.5q13 58 -23.5 91.5t-125.5 33.5 q-67 0 -149 -26q-13 -113 -17 -139h-21z" />
<glyph unicode="@" horiz-adv-x="817" d="M497 324l6 71q-18 44 -52 68q-43 23 -75 -11.5t-32 -93.5q0 -84 69 -84q40 0 84 50zM806 441q0 -94 -46 -162.5t-147 -68.5q-51 0 -82 19.5t-37 49.5q-13 -23 -40 -39.5t-60 -16.5q-116 0 -116 142q0 64 36 112.5t84 48.5q74 0 115 -73l16 65l50 -18q-20 -131 -20 -187 q0 -61 60 -61q54 0 82.5 55.5t28.5 141.5q0 82 -44.5 141.5t-110.5 86.5t-143 27q-18 0 -32.5 -1t-48 -7.5t-60 -18t-58.5 -37t-53.5 -59.5t-36.5 -89.5t-15 -124.5q0 -70 15 -125.5t36 -90.5t55.5 -60t61.5 -37t66 -18.5t57.5 -7t46.5 -0.5h7q148 0 316 95v-85 q-152 -56 -353 -56q-193 0 -292 104t-95 280q0 175 108 280.5t278 105.5q162 0 266.5 -80.5t104.5 -230.5z" />
<glyph unicode="A" horiz-adv-x="657" d="M488 677l-219 -363h271zM185 0h-224q5 17 6 20l72 17l388 639q-40 10 -76 20l5 20h186l92 -679q13 -2 38 -9t30 -8q0 -1 -3 -20h-225q1 4 3 11t2 10l88 19l-23 232h-293l-143 -231q13 -4 41 -11t39 -10q0 -1 -3 -20z" />
<glyph unicode="B" horiz-adv-x="705" d="M247 367l-71 -334l149 -7q150 -4 216.5 41t86.5 136q16 77 -32.5 120.5t-143.5 43.5h-205zM256 411h158q102 0 154 30t66 98q14 64 -22.5 99t-132.5 35h-167zM178 716h309q139 0 190 -48.5t33 -128.5q-27 -126 -195 -149q98 -7 153.5 -55t36.5 -140q-18 -85 -102 -145.5 t-232 -62.5q-29 1 -155 5t-190 8l4 22l81 18l137 637l-75 18z" />
<glyph unicode="C" horiz-adv-x="700" d="M719 573l1 85q-55 31 -138 31q-30 0 -67.5 -9.5t-83.5 -34.5t-86 -61.5t-75 -96.5t-52 -133q-7 -45 -7.5 -83.5t5 -67.5t14.5 -53.5t23 -41.5t28.5 -30.5t33 -21.5t34.5 -13.5t34.5 -8t31.5 -3.5t27 -1q98 0 215 78l-14 -69q-35 -20 -94 -39t-118 -21q-117 0 -191 51.5 t-96.5 135t0.5 188.5q35 170 153.5 273.5t293.5 103.5q97 0 185 -32q-6 -24 -19.5 -65.5t-18.5 -60.5h-19z" />
<glyph unicode="D" horiz-adv-x="702" d="M309 664l-126 -590q-4 -25 -2 -28t22 -3h89q48 0 98.5 16t102.5 49.5t93.5 97t59.5 148.5q15 86 2 146.5t-50.5 98.5t-81.5 55.5t-91 17.5h-24q-56 0 -71 -1t-21 -7zM245 677l-74 17l4 21h257q77 0 136.5 -23.5t91.5 -62t52 -86.5t19.5 -96.5t-6.5 -92.5q-10 -47 -30 -93 t-57 -94t-84.5 -84.5t-118 -59.5t-153.5 -23h-258l4 21l82 18z" />
<glyph unicode="E" horiz-adv-x="588" d="M613 575l4 98h-305l-62 -288h260l-9 -43h-260l-63 -299h338l33 77h19l-25 -120h-516l4 21l82 18l136 637l-75 18l4 21h494l-40 -140h-19z" />
<glyph unicode="F" horiz-adv-x="599" d="M178 38l75 -18l-4 -20h-220l4 22l81 18l135 635l-73 18l4 22h538l-36 -141h-22l3 97h-351l-60 -285h247l-11 -50h-247z" />
<glyph unicode="G" horiz-adv-x="814" d="M815 301l-56 -264q-179 -57 -318 -57q-384 -4 -302 379q37 170 157 271.5t295 101.5q151 0 253 -37l-35 -121h-21v81q-65 32 -208 32q-86 -5 -157 -41q-167 -86 -210 -293q-11 -52 -12 -96t6 -75.5t22.5 -56.5t32 -40.5t40.5 -26.5t42 -16.5t42 -8t35 -3t27 -0.5h4 q147 0 254 61l37 174q-57 12 -75 17l4 19h143z" />
<glyph unicode="H" horiz-adv-x="770" d="M921 716l-5 -21l-80 -17l-137 -638q68 -16 74 -18l-4 -22h-223l4 21l82 18l65 298h-452l-63 -299l74 -17l-4 -21h-225l4 21l79 18l135 638q-11 2 -35.5 8.5t-35.5 8.5l5 22h225l-5 -21l-82 -18l-62 -295h452l62 294l-76 20l5 20h223z" />
<glyph unicode="I" horiz-adv-x="279" d="M406 716l-5 -21l-80 -18l-135 -639l73 -17l-4 -21h-216l4 21l79 18l135 638q-10 2 -34.5 8.5t-35.5 8.5l5 22h214z" />
<glyph unicode="J" horiz-adv-x="292" d="M273 677l-76 18l5 21h223l-5 -21l-83 -18l-151 -700q-34 -150 -159 -182l8 37q68 49 90 145z" />
<glyph unicode="K" horiz-adv-x="663" d="M450 439l180 -402q13 -2 37 -9t30 -8l-4 -20h-218l4 20l78 15l-156 351l-185 -168l-38 -179q68 -16 74 -18l-4 -21h-222l4 21l82 18l136 637q-44 10 -75 19l5 21h222l-5 -21l-80 -17l-82 -381l396 375l-91 23l5 21h237l-5 -21l-70 -16z" />
<glyph unicode="L" horiz-adv-x="555" d="M562 144l-23 -144h-511l3 21l82 18l136 638l-75 18l5 21h222l-5 -21l-80 -17l-131 -610q-4 -17 -1.5 -19.5t21.5 -2.5h298l38 98h21z" />
<glyph unicode="M" horiz-adv-x="896" d="M248 0h-225l4 21l82 18l135 638l-75 18l5 21h178l127 -537q4 -15 12 -20.5t18.5 0t20.5 20.5l350 537h169l-5 -21l-82 -18l-135 -637l77 -19l-5 -21h-225l4 21l83 18l130 604l-370 -559h-74l-144 561l-129 -607l78 -17z" />
<glyph unicode="N" horiz-adv-x="741" d="M885 695l-82 -18l-135 -639l75 -17l-4 -21h-155l-279 653l-131 -613q44 -10 75 -19l-3 -21h-224q1 4 3 11t2 10l81 18l136 638l-73 18l5 21h162l273 -639l136 639h143z" />
<glyph unicode="O" horiz-adv-x="844" d="M210 357q-11 -54 -12 -99.5t5 -77.5t21.5 -57.5t31 -41.5t39 -27.5t40.5 -17t40.5 -8.5t33.5 -3h26h4q16 0 30.5 1t49.5 7.5t64.5 18t68 36t68 58.5t56.5 88.5t41 122.5q12 54 12 99.5t-8 77.5t-25.5 57.5t-34.5 41.5t-43 27t-43 16t-42 8t-32.5 3h-21.5q-18 0 -33 -1 t-49 -7.5t-62 -18t-64.5 -36t-65 -58.5t-54.5 -88t-41 -121zM589 731q193 -3 264 -96t32 -279q-36 -171 -149 -273.5t-307 -102.5q-372 0 -295 376q39 182 156.5 277t298.5 98z" />
<glyph unicode="P" horiz-adv-x="636" d="M312 672l-69 -324h181q51 0 92.5 18t65 45t36.5 51t18 44q9 26 5 55.5t-16.5 54t-46.5 40.5t-85 16h-181zM249 677l-74 18l5 21h323q56 0 98.5 -12.5t66 -33t37.5 -48t13.5 -56.5t-5.5 -59q-17 -81 -91 -142.5t-207 -61.5h-181l-56 -263q43 -9 76 -19l-4 -21h-224l4 21 l83 18z" />
<glyph unicode="Q" horiz-adv-x="841" d="M210 354q-12 -54 -13.5 -99.5t5 -77.5t21.5 -57.5t31 -41.5t39.5 -27.5t40.5 -17t41 -8.5t34 -3h25h4q16 0 31 1t49.5 7.5t64 18t67.5 36t67.5 58.5t56.5 88.5t42 122.5q12 54 12 99.5t-7.5 77.5t-25.5 57.5t-35 41.5t-43 27t-43 16t-41.5 8t-32.5 3h-22q-17 0 -32 -1 t-49 -7.5t-62.5 -18t-65.5 -36t-65 -58.5t-54 -88t-40 -121zM588 728q194 -3 265 -96t32 -279q-78 -350 -434 -376l-7 -33q-14 -66 19 -100.5t78 -39.5l-2 -11q-45 2 -77 15t-46.5 30t-20.5 39t-5.5 37.5t3.5 30.5l7 32q-180 15 -240 111.5t-26 264.5q39 181 156.5 276.5 t297.5 98.5z" />
<glyph unicode="R" horiz-adv-x="682" d="M250 397h178q89 0 137.5 42t58.5 96q11 55 -20.5 96t-117.5 41h-178zM178 716h318q115 0 164 -51.5t32 -130.5q-28 -128 -193 -163q23 -3 39 -13.5t26 -29.5t14 -33t10 -38l41 -220q13 -3 37.5 -9t31.5 -8q0 -1 -3 -20h-223l4 21l90 19l-48 243q-10 35 -27.5 50t-51.5 15 h-200l-65 -310l15 -4q11 -3 61 -13l-3 -21h-223l4 21l82 18l136 638l-73 18z" />
<glyph unicode="S" horiz-adv-x="608" d="M117 154l3 -72q78 -54 178 -54q82 0 146.5 41t78.5 101q3 18 4 31t-4.5 35t-20 38.5t-47 35t-79.5 31.5q-113 34 -161.5 82t-30.5 128q15 74 93 127t193 53q161 0 216 -41l-29 -106h-22l-2 72q-75 36 -172 36q-71 0 -128.5 -39t-71.5 -103q-13 -62 17.5 -93t107.5 -55 q51 -16 83.5 -30t72 -40.5t54 -67.5t3.5 -94q-12 -55 -48.5 -95t-85 -59.5t-92 -27.5t-85.5 -8q-143 0 -213 58l22 116h20z" />
<glyph unicode="T" horiz-adv-x="636" d="M726 596l-1 77h-217l-135 -634l74 -18l-4 -21h-223l4 21l83 18l135 634h-226l-36 -77h-21l16 120h609l-37 -120h-21z" />
<glyph unicode="U" horiz-adv-x="737" d="M886 716l-6 -21l-80 -17l-83 -375q-7 -31 -9 -40t-11.5 -42.5t-17 -48.5t-23.5 -45t-32 -45.5t-42 -37t-55 -32.5t-68 -19t-84 -8q-58 0 -101 12.5t-68.5 31t-40 48.5t-19 56t-1.5 63t7 60.5t12 55.5l77 365l-76 17l5 22h225l-5 -21l-82 -17l-82 -375q-5 -24 -7 -35.5 t-4.5 -45t0.5 -53.5t13 -49t28.5 -46t51.5 -29.5t77 -12.5q59 0 107 23t75 53t47.5 72.5t27.5 68.5t12 54l79 374l-75 17l5 22h223z" />
<glyph unicode="V" horiz-adv-x="703" d="M259 679l90 -643l365 646l-63 14l5 20h212l-5 -20l-75 -17l-398 -679h-95l-104 679l-67 17l5 20h214l-5 -21z" />
<glyph unicode="W" horiz-adv-x="1069" d="M332 695l-73 -15l101 -642l311 678h62l15 -680l373 644l-68 15l5 21h210l-5 -20l-72 -17l-390 -679h-101l-14 645l-291 -645h-101l-105 679l-68 17l5 20h211z" />
<glyph unicode="X" horiz-adv-x="708" d="M152 39l79 -19l-4 -20h-223l4 21l71 16l327 332l-175 310l-65 17l5 20h223l-5 -21l-80 -18l140 -259l255 262l-72 16l5 20h223l-5 -20l-71 -17l-303 -310l178 -332q13 -2 36.5 -9t29.5 -8l-4 -20h-223l4 21l86 20l-159 280z" />
<glyph unicode="Y" horiz-adv-x="710" d="M405 39l73 -18l-4 -21h-222l4 21l81 18l48 227l-179 413l-66 16l5 21h212l-5 -20l-80 -15l155 -372l317 372l-68 15l5 20h209l-5 -20l-71 -17l-361 -413z" />
<glyph unicode="Z" horiz-adv-x="675" d="M615 50l56 94l-19 -144h-607l10 50l662 623h-480l-35 -76h-19l14 119h607l-9 -46l-657 -620h477z" />
<glyph unicode="[" horiz-adv-x="324" d="M482 750l-10 -45h-158l-185 -874h158l-10 -44h-233l205 963h233z" />
<glyph unicode="\" horiz-adv-x="347" d="M213 753l139 -773q-6 0 -22.5 0.5t-24.5 0.5l-139 772h47z" />
<glyph unicode="]" horiz-adv-x="324" d="M174 750h232l-205 -962h-231l10 46h157l185 871h-158z" />
<glyph unicode="^" horiz-adv-x="602" d="M116 287l-52 1l230 427h54l223 -435h-50l-199 415z" />
<glyph unicode="_" horiz-adv-x="500" d="M-15 -120h500l-4 -19h-500z" />
<glyph unicode="`" horiz-adv-x="222" d="M163 751h78l26 -112h-42z" />
<glyph unicode="a" d="M498 275l36 168q-70 36 -134 36q-49 0 -88 -19t-62 -51t-36.5 -64.5t-20.5 -69.5q-54 -246 63 -246q45 0 89 28t74.5 68t51 80t27.5 70zM605 471l-91 -431q11 -2 36.5 -8.5t38.5 -9.5l-4 -22h-145l25 118q-39 -58 -100 -95.5t-136 -37.5q-55 0 -83.5 24.5t-36.5 89 t18 176.5q29 137 101.5 196.5t164.5 59.5q49 0 92 -15t73 -30t47 -15z" />
<glyph unicode="b" horiz-adv-x="557" d="M204 241l-38 -178q70 -34 132 -34q49 0 87.5 22t62 61.5t37 77t24.5 85.5q44 213 -64 213q-45 0 -89 -28.5t-75 -69t-51.5 -81t-25.5 -68.5zM176 795h147l-87 -410q22 49 87 98.5t136 49.5q174 0 121 -258q-32 -150 -105 -218.5t-200 -68.5q-70 0 -183 39l155 728 q-11 2 -37.5 9t-37.5 9z" />
<glyph unicode="c" horiz-adv-x="529" d="M338 31q88 0 184 43l-11 -58q-104 -31 -183 -31q-135 0 -187.5 68t-22.5 211q31 146 112.5 207.5t214.5 61.5q87 0 155 -42q-3 -9 -29 -105h-21l-3 72q-60 29 -112 29q-43 0 -78 -8.5t-70 -31t-61 -68t-40 -113.5q-14 -58 -10 -99t14.5 -67.5t35 -41.5t51 -21t61.5 -6z " />
<glyph unicode="d" d="M532 449l-13 7q-76 38 -144 38q-48 0 -85 -27.5t-57 -71t-29 -73t-14 -57.5q-9 -38 -11.5 -72.5t1.5 -73t27 -61.5t64 -23q173 0 213 190zM598 756l-75 18q2 7 4 22h149l-162 -758l78 -17l-4 -21h-145l9 91q-25 -46 -76 -73t-114 -27q-90 0 -133 65t-12 208 q30 140 104.5 208t162.5 68q77 0 161 -34z" />
<glyph unicode="e" horiz-adv-x="541" d="M191 305l308 1q29 180 -108 180q-82 0 -132 -51.5t-68 -129.5zM293 25q97 0 170 81l37 -35q-93 -87 -216 -87q-126 0 -165.5 67t-13.5 196q59 285 296 285q207 0 147 -269l-373 1q-11 -48 -15.5 -79.5t-2 -64.5t16.5 -52t43.5 -31t75.5 -12z" />
<glyph unicode="f" horiz-adv-x="314" d="M167 38l78 -17l-4 -21h-228l4 21l84 19l94 435h-86l10 43h86l9 46q27 122 85.5 169t159.5 47q46 0 104 -31l-30 -108h-20l-1 77q-39 10 -64 10q-22 0 -41 -3t-33 -6t-26 -12.5t-19.5 -14.5t-15.5 -20t-11.5 -21.5t-9 -27t-7 -27.5t-7.5 -32l-9 -46h129l-10 -43h-129z" />
<glyph unicode="g" horiz-adv-x="587" d="M583 517h113l-5 -24l-73 -26l-102 -478q-21 -81 -58 -126q-77 -94 -226 -94q-123 0 -182 93l47 32q17 -23 38 -40q50 -40 107 -40q49 0 87 15t59 36t35.5 48t19 44t6.5 32l16 75q-41 -47 -80 -64t-96 -17q-66 0 -110 22.5t-62.5 61t-22.5 89t10 105.5q30 137 97.5 204.5 t194.5 67.5q75 0 111.5 -22.5t54.5 -68.5zM691 493l2 1zM173 261q-11 -53 -12 -93t8.5 -64.5t21.5 -40.5t32.5 -23t36.5 -9t39 -2q25 0 40.5 1.5t44 14t48.5 35t41.5 69t35.5 112.5q10 46 11.5 82.5t-2.5 60t-16 40t-23.5 25t-30.5 13t-30.5 5t-31.5 0.5q-22 0 -32 -0.5 t-32 -4.5t-34.5 -12t-32 -24t-32 -39.5t-26.5 -60.5t-24 -85z" />
<glyph unicode="h" horiz-adv-x="600" d="M523 40l78 -18l-4 -22h-225l4 21l83 19l61 279q17 77 -6.5 120t-84.5 43q-68 0 -129.5 -46t-73.5 -106l-62 -290q12 -4 39 -10t39 -9l-4 -21h-227l4 22l84 16l152 718q-12 2 -39.5 9t-38.5 9l5 22h146l-81 -385q34 47 100 84t127 37q75 0 105.5 -55t7.5 -165z" />
<glyph unicode="i" horiz-adv-x="239" d="M308 710h-85l18 85h85zM191 477l-76 19l4 21h148l-101 -477l76 -19l-4 -21h-228l4 21l84 19z" />
<glyph unicode="j" horiz-adv-x="241" d="M326 795l-18 -85h-84l18 85h84zM267 517l-113 -534q-11 -54 -34 -94t-51 -60.5t-48.5 -30t-39.5 -13.5l9 45q76 61 94 143l107 504l-76 19l4 21h148z" />
<glyph unicode="k" horiz-adv-x="557" d="M495 37l66 -16l-4 -21h-227l4 21l81 16l-74 134l-67 -26l11 52q233 93 257 203q9 45 -12.5 72.5t-63.5 27.5q-66 0 -146.5 -63.5t-97.5 -136.5l-55 -260q11 -4 37.5 -10t37.5 -9l-4 -21h-228l4 21l83 19l152 715q-58 14 -75 19l4 21h149l-83 -395q112 151 252 151 q63 0 92 -40t17 -100q-22 -104 -200 -210z" />
<glyph unicode="l" horiz-adv-x="239" d="M167 40l75 -19l-4 -21h-227l4 21l83 19l152 715q-58 14 -75 19l4 21h148z" />
<glyph unicode="m" horiz-adv-x="843" d="M189 477l-76 19l4 21h140l-9 -100q34 48 91 82t106 34q41 0 67.5 -27t24.5 -91q35 49 95.5 83.5t116.5 34.5q64 0 82.5 -50.5t-4.5 -158.5l-58 -283l78 -21l-4 -20h-145l70 330q8 39 10 64t-2.5 47t-21.5 32.5t-47 10.5q-71 0 -118.5 -49t-60.5 -115l-60 -280l74 -19 l-4 -21h-146l68 320q19 81 7 122.5t-63 41.5q-70 0 -120 -50.5t-62 -113.5l-60 -279l79 -21l-4 -20h-229l4 21l84 19z" />
<glyph unicode="n" horiz-adv-x="595" d="M523 40l76 -18l-4 -22h-144l67 319q17 77 -6.5 120t-84.5 43q-68 0 -129.5 -46t-73.5 -106l-62 -290l79 -19l-4 -21h-228l4 22l84 16l93 439q-9 2 -36.5 8.5t-41.5 9.5l4 22h140l-8 -102q41 51 100 84t120 33q75 0 105.5 -55t7.5 -165z" />
<glyph unicode="o" horiz-adv-x="585" d="M186 261q-11 -53 -12 -93t8.5 -64.5t21.5 -40.5t32.5 -23t37 -9t39.5 -2q25 0 40 1.5t43.5 14t48.5 35t42 69t36 112.5q10 46 11.5 82.5t-2.5 60t-16 40.5t-23 25t-30.5 12.5t-31 5t-30.5 0.5h-24.5t-25 -2t-27 -5.5t-26 -11.5t-26.5 -18.5t-24 -28t-24 -39.5t-20 -53 t-18 -68zM411 533q247 0 189 -272q-29 -142 -97 -210t-200 -68q-66 0 -111 22.5t-63.5 61t-23 89t9.5 105.5q29 136 98.5 204t197.5 68z" />
<glyph unicode="p" horiz-adv-x="571" d="M205 242l-36 -168q70 -36 134 -36q49 0 88 19t62 51t36.5 64.5t20.5 69.5q54 246 -63 246q-45 0 -89 -28t-74.5 -68t-51 -80t-27.5 -70zM116 -176l75 -15l-5 -22h-220l5 23l79 15l139 652q-11 2 -36.5 8.5t-38.5 9.5l4 22h145l-25 -118q39 58 100 95.5t136 37.5 q55 0 83.5 -24.5t36.5 -89t-18 -176.5q-29 -137 -101.5 -195t-164.5 -58q-77 0 -152 31z" />
<glyph unicode="q" horiz-adv-x="566" d="M241 29q43 0 84.5 20.5t70.5 51t48 63.5t24 61l48 223q-66 39 -131 39q-159 0 -205 -228q-53 -230 61 -230zM450 -173l75 -17l-5 -22h-224l5 22l83 16l59 278q-34 -43 -92 -81.5t-120 -38.5q-176 0 -115 275q30 141 101 204.5t201 63.5q78 0 171 -43z" />
<glyph unicode="r" horiz-adv-x="388" d="M184 477l-74 19l4 21h132l2 -109q24 61 70.5 92.5t90.5 31.5q52 0 78 -14l-33 -120h-22l-1 79q-15 3 -33 3q-24 0 -41 -3t-41.5 -16t-42.5 -36.5t-37 -68.5t-33 -107l-44 -211q29 -6 50 -11.5t22 -5.5l-4 -21h-218l4 21l78 17z" />
<glyph unicode="s" horiz-adv-x="492" d="M486 381l-2 73q-81 32 -139 32q-50 0 -82 -19t-45 -72q-9 -44 13.5 -62t85.5 -34q105 -25 148 -61t31 -95q-16 -74 -79.5 -116t-156.5 -42q-66 0 -117.5 17t-77.5 35q2 4 32 115h21l3 -72q84 -45 149 -45q136 0 156 105q7 29 -17.5 52t-59 35t-89.5 25q-66 14 -94.5 52 t-17.5 91q5 20 16 39.5t33 42.5t62.5 37t93.5 14q23 0 45 -2.5t38.5 -6t34 -9.5t27 -9.5t22.5 -9t15 -6.5q-5 -18 -13 -52t-14 -52h-22z" />
<glyph unicode="t" horiz-adv-x="352" d="M119 517h100q3 8 23 66.5t31 87.5h45l-33 -154h134l-9 -43h-134l-71 -335q-14 -67 -7.5 -84.5t44.5 -17.5q36 0 76 17l-11 -53q-52 -13 -100 -13q-52 0 -70.5 24t-3.5 92l78 370h-101z" />
<glyph unicode="u" horiz-adv-x="594" d="M552 480l-107 17l4 20h175l-101 -477l76 -19l-4 -21h-140l8 97q-39 -52 -102 -83.5t-118 -31.5q-73 0 -108 51t-10 163l60 281l-72 19l4 21h143l-70 -330q-19 -77 -1 -118.5t81 -41.5q71 0 138.5 49t84.5 127z" />
<glyph unicode="v" horiz-adv-x="553" d="M162 480l-71 14l4 23h224l-4 -21l-87 -20l61 -440l248 441l-65 18l4 22h211l-4 -20l-77 -17l-286 -480h-79z" />
<glyph unicode="w" horiz-adv-x="794" d="M225 49l240 468h77l44 -468l196 430l-83 15l4 23h226l-4 -23l-80 -14q-5 -8 -225 -480h-77l-46 482l-249 -482h-77q-21 472 -21 480l-74 14l4 23h226l-4 -23l-91 -15z" />
<glyph unicode="x" horiz-adv-x="546" d="M328 517l-4 -21l-61 -20l74 -174l153 175l-51 19l4 21h197l-4 -20l-73 -17l-194 -219l112 -224l70 -17l-4 -20h-197l4 21l55 20l-86 185l-164 -185l45 -20l-4 -21h-194l4 20l74 17l209 223l-98 220l-65 17l4 20h194z" />
<glyph unicode="y" horiz-adv-x="570" d="M703 497l-76 -17l-372 -654l85 -18l-5 -22h-228l4 21l81 16l66 119l-101 538l-70 14l4 23h224l-4 -20l-87 -18l76 -482l258 479l-79 19l4 22h224z" />
<glyph unicode="z" horiz-adv-x="478" d="M410 53l35 79h21l-16 -132h-404l11 53l416 420h-277l-36 -79h-22l19 123h409l-8 -42l-417 -422h269z" />
<glyph unicode="{" horiz-adv-x="447" d="M394 -167l-10 -46h-68q-90 0 -139 50t-25 160l32 153q3 11 3.5 21t-2 18t-5.5 14.5t-9 12t-10 9.5t-11.5 8t-11.5 6t-11 5t-9 4l10 46q89 32 109 102l33 155q14 70 55 117t90.5 66t106.5 19h68l-10 -47h-58q-150 0 -174 -109l-42 -200q-9 -38 -31 -70t-55 -37l-8 -38 q32 -6 41.5 -37.5t-0.5 -64.5l-44 -210q-23 -108 124 -107h1.5h1.5h58z" />
<glyph unicode="|" horiz-adv-x="229" d="M50 -234l221 1043h47l-221 -1043h-47z" />
<glyph unicode="}" horiz-adv-x="444" d="M59 -213h-67l9 46h58q151 0 174 107l44 210q21 89 85 101l8 38q-32 5 -41 41t1 67l42 200q7 31 -1.5 53t-23 32.5t-38.5 16.5t-36 6.5t-28 0.5h-58l10 47h68q90 0 138.5 -49t28.5 -153l-33 -154q-17 -73 67 -103l-12 -47q-90 -34 -108 -97l-32 -153 q-24 -111 -93.5 -160.5t-161.5 -49.5z" />
<glyph unicode="~" horiz-adv-x="600" d="M252 216q-34 0 -103 -19q2 9 3.5 20.5t3.5 19.5q75 31 109 31q47 0 99.5 -14t105.5 -14q50 0 103 22l-9 -45q-73 -28 -105 -28q-50 0 -104 13.5t-103 13.5z" />
<glyph unicode="&#xa1;" horiz-adv-x="284" d="M218 292l-38 -294l-45 -213h-71l45 213l88 294h21zM197 432l18 84h85l-18 -84h-85z" />
<glyph unicode="&#xa2;" horiz-adv-x="509" d="M400 529l16 75h33l-16 -74q90 -8 159 -38q-14 -37 -18 -47q-77 37 -150 44l-98 -461q104 10 186 45q-11 -47 -12 -59q-100 -27 -183 -30l-23 -108h-33l24 110q-230 30 -177 277q27 127 108 196.5t184 69.5zM176 265v-1q-23 -105 9 -163.5t109 -70.5l98 460 q-63 0 -129 -63.5t-87 -161.5z" />
<glyph unicode="&#xa3;" horiz-adv-x="585" d="M580 195v2q21 84 -23 136q5 5 16 14t16 14q51 -62 28 -164q-21 -101 -100 -151.5t-178 -46.5h-291l9 43q114 16 146 162l33 155h-49l9 45h49l37 174q19 84 84 127t143 43q73 0 107 -26l-9 -43q-49 25 -99 25q-71 0 -105 -40.5t-48 -108.5l-32 -151h113l-9 -45h-113 l-33 -155q-14 -63 -115 -161l175 -10q191 0 239 162z" />
<glyph unicode="&#xa5;" horiz-adv-x="690" d="M358 325l-179 406h83l159 -403q260 308 342 403h84l-351 -406h174l-9 -41h-205l-36 -169h205l-9 -40h-205l-15 -75h-75l15 75h-203l9 40h203l36 169h-203l9 41h171z" />
<glyph unicode="&#xa7;" horiz-adv-x="576" d="M334 419q-42 0 -85 -40t-53 -91q-17 -65 -12 -103.5t41.5 -54t123.5 -15.5q55 0 104 42.5t63 109.5q6 29 6 51t-4 38t-17 27t-26 17.5t-38 10.5t-46.5 5.5t-56.5 2.5zM600 595l-3 73q-100 34 -138 34q-51 0 -84 -17.5t-44 -70.5q-12 -54 21.5 -95t117.5 -60 q150 -33 116 -192q-16 -77 -65.5 -123t-140.5 -67q53 -19 83.5 -56.5t20.5 -82.5q-15 -72 -80.5 -111.5t-156.5 -39.5q-106 0 -192 55q5 17 15 56t16 57h21l2 -72q70 -46 149 -46q138 0 157 101q10 49 -37.5 91t-120.5 42q-88 0 -120.5 54t-14.5 142q6 27 20 56t37.5 61.5 t63 55.5t86.5 28q-39 22 -59.5 57.5t-12.5 67.5q28 152 211 152q104 0 183 -46l-32 -105q-5 0 -10.5 0.5t-8.5 0.5z" />
<glyph unicode="&#xa8;" horiz-adv-x="222" d="M336 715h67l-17 -81h-67zM131 715h66l-17 -81h-66zM336 715h67l-17 -81h-67zM131 715h66l-17 -81h-66z" />
<glyph unicode="&#xaa;" horiz-adv-x="277" d="M299 501l19 86q-32 -7 -70 -7q-17 0 -26 -2t-21 -14.5t-18 -38.5q-6 -27 6.5 -40.5t37.5 -13.5q36 0 72 30zM303 453l-9 31q-45 -34 -88 -34q-72 0 -56 76q15 75 95 75q41 0 54 2t24 11q10 51 1.5 64t-42.5 13q-26 0 -60 -9q-11 -24 -15 -37h-11l8 52q39 17 86 17 q41 0 59.5 -21.5t5.5 -77.5l-30 -142l37 -9l-2 -11h-57z" />
<glyph unicode="&#xab;" horiz-adv-x="562" d="M124 282q3 12 17 20l195 121q-8 -39 -21 -45l-156 -96q77 -67 112 -92q14 -13 5 -50l-143 122q-11 8 -9 20zM372 282q3 12 17 20l195 121q-8 -39 -21 -45l-156 -96q77 -67 112 -92q14 -13 5 -50l-143 122q-11 8 -9 20z" />
<glyph unicode="&#xb0;" horiz-adv-x="400" d="M96 592q0 -36 10.5 -62t23 -37.5t32 -17.5t26.5 -6.5t19 -0.5q9 0 18.5 1t28.5 7.5t32.5 18.5t24.5 37t11 60t-11 60.5t-24 37t-33 18t-28.5 7t-18.5 0.5t-19 -1t-27.5 -7.5t-31 -18t-23 -36.5t-10.5 -60zM207 731q73 -1 106.5 -35.5t33.5 -104.5q0 -63 -34 -101 t-106 -38q-139 0 -139 139q0 68 36 103.5t103 36.5z" />
<glyph unicode="&#xb2;" horiz-adv-x="368" d="M374 327l22 48h13l-10 -76h-290q10 43 29 76.5t48.5 58.5t58 42t69.5 36q87 38 100 104q7 35 -11.5 58.5t-66.5 25.5q-27 0 -54 -12t-34 -18t-24 -21q-11 -30 -17 -40h-12l8 63q14 14 54.5 35t83.5 21q66 0 93.5 -31.5t17.5 -80.5q-17 -87 -135 -139q-129 -58 -153 -150 h210z" />
<glyph unicode="&#xb3;" horiz-adv-x="361" d="M178 628l9 62q86 38 152 38q57 0 90.5 -24t24.5 -73q-9 -40 -39.5 -67.5t-67.5 -30.5q49 -6 74.5 -36.5t15.5 -74.5q-10 -53 -66.5 -90.5t-136.5 -37.5q-102 0 -138 22q10 43 19 66h12v-44q64 -20 108 -20q68 0 106.5 34t46.5 70q7 33 -18 61.5t-80 28.5h-50l6 28h50 q51 0 78.5 23.5t34.5 59.5q7 30 -12 53.5t-64 23.5q-44 0 -124 -30q-3 -6 -9.5 -20t-8.5 -21q-4 0 -7.5 -0.5t-5.5 -0.5z" />
<glyph unicode="&#xb4;" horiz-adv-x="222" d="M297 751h80q-99 -102 -111 -112h-42q14 20 73 112z" />
<glyph unicode="&#xb7;" horiz-adv-x="290" d="M171 306l18 85h85l-18 -85h-85z" />
<glyph unicode="&#xb8;" horiz-adv-x="245" d="M89 -91q-21 0 -38 -4q1 0 72 95h7l-58 -78q61 7 84.5 -16.5t16.5 -56.5q-13 -65 -96 -73q-39 0 -62 8l4 20q21 -10 46 -10q60 0 72 55q13 60 -48 60z" />
<glyph unicode="&#xb9;" horiz-adv-x="317" d="M194 367l41 9l69 323q-21 -1 -45 -11l3 16q5 3 19.5 10.5t21.5 12.5h41l-75 -351l39 -9l-3 -11h-114z" />
<glyph unicode="&#xba;" horiz-adv-x="400" d="M221 592q-4 -21 -4.5 -38t2 -29t9 -22t12 -15.5t15.5 -10t15 -6t15.5 -2.5t12 -1h8.5q9 0 18.5 1t30.5 7.5t37 18.5t32 37t23 60q4 20 4.5 37t-2.5 29t-9.5 21.5t-13 15.5t-16 10t-16 6t-15.5 3t-12.5 1h-8.5q-13 0 -26 -2.5t-37.5 -12.5t-44.5 -37.5t-29 -70.5zM362 731 q73 -1 99 -35.5t11 -104.5q-13 -63 -55 -101t-114 -38q-137 0 -110 139q30 138 169 140z" />
<glyph unicode="&#xbb;" horiz-adv-x="555" d="M568 282q-2 -12 -17 -20l-195 -122q9 39 27 50q14 8 72.5 43.5t77.5 48.5l-114 96q-11 6 -3 45l145 -121q10 -7 7 -20zM320 282q-2 -12 -17 -20l-195 -122q9 39 27 50q14 8 72.5 43.5t77.5 48.5l-114 96q-11 6 -3 45l145 -121q10 -7 7 -20z" />
<glyph unicode="&#xbf;" horiz-adv-x="582" d="M495 517l-17 -84h-85l17 84h85zM485 -16l1 -185q-90 -31 -199 -31q-112 0 -170 43.5t-39 132.5q6 31 20 56.5t39 49t42 36t50 34.5q31 20 51 35t45 37.5t41 48.5t25 55h40q-34 -124 -157 -200q-35 -24 -55 -39.5t-41.5 -46t-28.5 -66.5q-13 -58 23.5 -91.5t125.5 -33.5 q60 0 150 26l16 139h21z" />
<glyph unicode="&#xc0;" horiz-adv-x="657" d="M488 677l-219 -363h271zM185 0h-224q5 17 6 20l72 17l388 639q-40 10 -76 20l5 20h186l92 -679q13 -2 38 -9t30 -8q0 -1 -3 -20h-225q1 4 3 11t2 10l88 19l-23 232h-293l-143 -231q13 -4 41 -11t39 -10q0 -1 -3 -20zM465 950h78l26 -112h-42z" />
<glyph unicode="&#xc1;" horiz-adv-x="657" d="M488 677l-219 -363h271zM185 0h-224q5 17 6 20l72 17l388 639q-40 10 -76 20l5 20h186l92 -679q13 -2 38 -9t30 -8q0 -1 -3 -20h-225q1 4 3 11t2 10l88 19l-23 232h-293l-143 -231q13 -4 41 -11t39 -10q0 -1 -3 -20zM514 950h80q-99 -102 -111 -112h-42q14 20 73 112z " />
<glyph unicode="&#xc2;" horiz-adv-x="657" d="M488 677l-219 -363h271zM185 0h-224q5 17 6 20l72 17l388 639q-40 10 -76 20l5 20h186l92 -679q13 -2 38 -9t30 -8q0 -1 -3 -20h-225q1 4 3 11t2 10l88 19l-23 232h-293l-143 -231q13 -4 41 -11t39 -10q0 -1 -3 -20zM553 953l75 -129h-43l-60 108l-106 -108h-43l131 129 h46z" />
<glyph unicode="&#xc3;" horiz-adv-x="657" d="M488 677l-219 -363h271zM185 0h-224q5 17 6 20l72 17l388 639q-40 10 -76 20l5 20h186l92 -679q13 -2 38 -9t30 -8q0 -1 -3 -20h-225q1 4 3 11t2 10l88 19l-23 232h-293l-143 -231q13 -4 41 -11t39 -10q0 -1 -3 -20zM372 861l8 43q20 20 62 20q26 0 75.5 -14t77.5 -14 q41 0 65 10l-8 -38q-34 -23 -67 -23q-30 0 -78 13t-79 13q-30 0 -56 -10z" />
<glyph unicode="&#xc4;" horiz-adv-x="657" d="M488 677l-219 -363h271zM185 0h-224q5 17 6 20l72 17l388 639q-40 10 -76 20l5 20h186l92 -679q13 -2 38 -9t30 -8q0 -1 -3 -20h-225q1 4 3 11t2 10l88 19l-23 232h-293l-143 -231q13 -4 41 -11t39 -10q0 -1 -3 -20zM590 914h67l-17 -81h-67zM385 914h66l-17 -81h-66z M590 914h67l-17 -81h-67zM385 914h66l-17 -81h-66z" />
<glyph unicode="&#xc5;" horiz-adv-x="657" d="M488 677l-219 -363h271zM185 0h-224q5 17 6 20l72 17l388 639q-40 10 -76 20l5 20h186l92 -679q13 -2 38 -9t30 -8q0 -1 -3 -20h-225q1 4 3 11t2 10l88 19l-23 232h-293l-143 -231q13 -4 41 -11t39 -10q0 -1 -3 -20zM412 846q-4 -21 -4.5 -38t2 -29t9 -22t12 -15.5 t15.5 -10t15 -6t15.5 -2.5t12 -1h8.5q9 0 18.5 1t30.5 7.5t37 18.5t32 37t23 60q4 20 4.5 37t-2.5 29t-9.5 21.5t-13 15.5t-16 10t-16 6t-15.5 3t-12.5 1h-8.5q-13 0 -26 -2.5t-37.5 -12.5t-44.5 -37.5t-29 -70.5zM553 985q73 -1 99 -35.5t11 -104.5q-13 -63 -55 -101 t-114 -38q-137 0 -110 139q30 138 169 140z" />
<glyph unicode="&#xc6;" horiz-adv-x="1051" d="M1097 576l4 98h-303l-60 -289h255l-9 -43h-255l-62 -299h333l33 77h19l-25 -120h-439l58 273h-295l-224 -231q11 -2 88 -22l-4 -20h-222l5 20l72 17l642 679h447q-1 -4 -38 -140h-20zM734 687l-351 -372h271z" />
<glyph unicode="&#xc7;" horiz-adv-x="700" d="M719 573l1 85q-55 31 -138 31q-30 0 -67.5 -9.5t-83.5 -34.5t-86 -61.5t-75 -96.5t-52 -133q-7 -45 -7.5 -83.5t5 -67.5t14.5 -53.5t23 -41.5t28.5 -30.5t33 -21.5t34.5 -13.5t34.5 -8t31.5 -3.5t27 -1q98 0 215 78l-14 -69q-35 -20 -94 -39t-118 -21q-117 0 -191 51.5 t-96.5 135t0.5 188.5q35 170 153.5 273.5t293.5 103.5q97 0 185 -32q-6 -24 -19.5 -65.5t-18.5 -60.5h-19zM369 -91q-21 0 -38 -4q1 0 72 95h7l-58 -78q61 7 84.5 -16.5t16.5 -56.5q-13 -65 -96 -73q-39 0 -62 8l4 20q21 -10 46 -10q60 0 72 55q13 60 -48 60z" />
<glyph unicode="&#xc8;" horiz-adv-x="588" d="M613 575l4 98h-305l-62 -288h260l-9 -43h-260l-63 -299h338l33 77h19l-25 -120h-516l4 21l82 18l136 637l-75 18l4 21h494l-40 -140h-19zM431 950h78l26 -112h-42z" />
<glyph unicode="&#xc9;" horiz-adv-x="588" d="M613 575l4 98h-305l-62 -288h260l-9 -43h-260l-63 -299h338l33 77h19l-25 -120h-516l4 21l82 18l136 637l-75 18l4 21h494l-40 -140h-19zM479 950h80q-99 -102 -111 -112h-42q14 20 73 112z" />
<glyph unicode="&#xca;" horiz-adv-x="588" d="M613 575l4 98h-305l-62 -288h260l-9 -43h-260l-63 -299h338l33 77h19l-25 -120h-516l4 21l82 18l136 637l-75 18l4 21h494l-40 -140h-19zM519 953l75 -129h-43l-60 108l-106 -108h-43l131 129h46z" />
<glyph unicode="&#xcb;" horiz-adv-x="588" d="M613 575l4 98h-305l-62 -288h260l-9 -43h-260l-63 -299h338l33 77h19l-25 -120h-516l4 21l82 18l136 637l-75 18l4 21h494l-40 -140h-19zM556 914h67l-17 -81h-67zM351 914h66l-17 -81h-66zM556 914h67l-17 -81h-67zM351 914h66l-17 -81h-66z" />
<glyph unicode="&#xcc;" horiz-adv-x="279" d="M406 716l-5 -21l-80 -18l-135 -639l73 -17l-4 -21h-216l4 21l79 18l135 638q-10 2 -34.5 8.5t-35.5 8.5l5 22h214zM276 950h78l26 -112h-42z" />
<glyph unicode="&#xcd;" horiz-adv-x="279" d="M406 716l-5 -21l-80 -18l-135 -639l73 -17l-4 -21h-216l4 21l79 18l135 638q-10 2 -34.5 8.5t-35.5 8.5l5 22h214zM326 950h80q-99 -102 -111 -112h-42q14 20 73 112z" />
<glyph unicode="&#xce;" horiz-adv-x="279" d="M406 716l-5 -21l-80 -18l-135 -639l73 -17l-4 -21h-216l4 21l79 18l135 638q-10 2 -34.5 8.5t-35.5 8.5l5 22h214zM364 953l75 -129h-43l-60 108l-106 -108h-43l131 129h46z" />
<glyph unicode="&#xcf;" horiz-adv-x="279" d="M406 716l-5 -21l-80 -18l-135 -639l73 -17l-4 -21h-216l4 21l79 18l135 638q-10 2 -34.5 8.5t-35.5 8.5l5 22h214zM401 914h67l-17 -81h-67zM196 914h66l-17 -81h-66zM401 914h67l-17 -81h-67zM196 914h66l-17 -81h-66z" />
<glyph unicode="&#xd1;" horiz-adv-x="741" d="M885 695l-82 -18l-135 -639l75 -17l-4 -21h-155l-279 653l-131 -613q44 -10 75 -19l-3 -21h-224q1 4 3 11t2 10l81 18l136 638l-73 18l5 21h162l273 -639l136 639h143zM414 861l8 43q20 20 62 20q26 0 75.5 -14t77.5 -14q41 0 65 10l-8 -38q-34 -23 -67 -23q-30 0 -78 13 t-79 13q-30 0 -56 -10z" />
<glyph unicode="&#xd2;" horiz-adv-x="844" d="M210 357q-11 -54 -12 -99.5t5 -77.5t21.5 -57.5t31 -41.5t39 -27.5t40.5 -17t40.5 -8.5t33.5 -3h26h4q16 0 30.5 1t49.5 7.5t64.5 18t68 36t68 58.5t56.5 88.5t41 122.5q12 54 12 99.5t-8 77.5t-25.5 57.5t-34.5 41.5t-43 27t-43 16t-42 8t-32.5 3h-21.5q-18 0 -33 -1 t-49 -7.5t-62 -18t-64.5 -36t-65 -58.5t-54.5 -88t-41 -121zM589 731q193 -3 264 -96t32 -279q-36 -171 -149 -273.5t-307 -102.5q-372 0 -295 376q39 182 156.5 277t298.5 98zM559 950h78l26 -112h-42z" />
<glyph unicode="&#xd3;" horiz-adv-x="844" d="M210 357q-11 -54 -12 -99.5t5 -77.5t21.5 -57.5t31 -41.5t39 -27.5t40.5 -17t40.5 -8.5t33.5 -3h26h4q16 0 30.5 1t49.5 7.5t64.5 18t68 36t68 58.5t56.5 88.5t41 122.5q12 54 12 99.5t-8 77.5t-25.5 57.5t-34.5 41.5t-43 27t-43 16t-42 8t-32.5 3h-21.5q-18 0 -33 -1 t-49 -7.5t-62 -18t-64.5 -36t-65 -58.5t-54.5 -88t-41 -121zM589 731q193 -3 264 -96t32 -279q-36 -171 -149 -273.5t-307 -102.5q-372 0 -295 376q39 182 156.5 277t298.5 98zM607 950h80q-99 -102 -111 -112h-42q14 20 73 112z" />
<glyph unicode="&#xd4;" horiz-adv-x="844" d="M210 357q-11 -54 -12 -99.5t5 -77.5t21.5 -57.5t31 -41.5t39 -27.5t40.5 -17t40.5 -8.5t33.5 -3h26h4q16 0 30.5 1t49.5 7.5t64.5 18t68 36t68 58.5t56.5 88.5t41 122.5q12 54 12 99.5t-8 77.5t-25.5 57.5t-34.5 41.5t-43 27t-43 16t-42 8t-32.5 3h-21.5q-18 0 -33 -1 t-49 -7.5t-62 -18t-64.5 -36t-65 -58.5t-54.5 -88t-41 -121zM589 731q193 -3 264 -96t32 -279q-36 -171 -149 -273.5t-307 -102.5q-372 0 -295 376q39 182 156.5 277t298.5 98zM647 953l75 -129h-43l-60 108l-106 -108h-43l131 129h46z" />
<glyph unicode="&#xd5;" horiz-adv-x="844" d="M210 357q-11 -54 -12 -99.5t5 -77.5t21.5 -57.5t31 -41.5t39 -27.5t40.5 -17t40.5 -8.5t33.5 -3h26h4q16 0 30.5 1t49.5 7.5t64.5 18t68 36t68 58.5t56.5 88.5t41 122.5q12 54 12 99.5t-8 77.5t-25.5 57.5t-34.5 41.5t-43 27t-43 16t-42 8t-32.5 3h-21.5q-18 0 -33 -1 t-49 -7.5t-62 -18t-64.5 -36t-65 -58.5t-54.5 -88t-41 -121zM589 731q193 -3 264 -96t32 -279q-36 -171 -149 -273.5t-307 -102.5q-372 0 -295 376q39 182 156.5 277t298.5 98zM465 861l8 43q20 20 62 20q26 0 75.5 -14t77.5 -14q41 0 65 10l-8 -38q-34 -23 -67 -23 q-30 0 -78 13t-79 13q-30 0 -56 -10z" />
<glyph unicode="&#xd6;" horiz-adv-x="844" d="M210 357q-11 -54 -12 -99.5t5 -77.5t21.5 -57.5t31 -41.5t39 -27.5t40.5 -17t40.5 -8.5t33.5 -3h26h4q16 0 30.5 1t49.5 7.5t64.5 18t68 36t68 58.5t56.5 88.5t41 122.5q12 54 12 99.5t-8 77.5t-25.5 57.5t-34.5 41.5t-43 27t-43 16t-42 8t-32.5 3h-21.5q-18 0 -33 -1 t-49 -7.5t-62 -18t-64.5 -36t-65 -58.5t-54.5 -88t-41 -121zM589 731q193 -3 264 -96t32 -279q-36 -171 -149 -273.5t-307 -102.5q-372 0 -295 376q39 182 156.5 277t298.5 98zM684 914h67l-17 -81h-67zM479 914h66l-17 -81h-66zM684 914h67l-17 -81h-67zM479 914h66 l-17 -81h-66z" />
<glyph unicode="&#xd8;" horiz-adv-x="824" d="M724 736h19l-15 -24q105 -44 139.5 -131t5.5 -225q-36 -171 -149 -273.5t-305 -102.5q-46 0 -128 14l-7 -14h-17l10 15q-211 77 -154 361q38 174 163.5 274.5t292.5 100.5q63 0 133 -14zM200 357q-47 -229 104 -314l198 324l182 302q-68 18 -115 18q-18 0 -33.5 -1 t-49.5 -7.5t-62 -18t-64.5 -36.5t-64.5 -58.5t-54 -87.5t-41 -121zM429 25q15 0 29.5 1t49.5 7.5t65 18t68.5 36t68 58.5t56.5 88.5t41 122.5q47 212 -108 307l-379 -626q42 -13 109 -13z" />
<glyph unicode="&#xd9;" horiz-adv-x="737" d="M886 716l-6 -21l-80 -17l-83 -375q-7 -31 -9 -40t-11.5 -42.5t-17 -48.5t-23.5 -45t-32 -45.5t-42 -37t-55 -32.5t-68 -19t-84 -8q-58 0 -101 12.5t-68.5 31t-40 48.5t-19 56t-1.5 63t7 60.5t12 55.5l77 365l-76 17l5 22h225l-5 -21l-82 -17l-82 -375q-5 -24 -7 -35.5 t-4.5 -45t0.5 -53.5t13 -49t28.5 -46t51.5 -29.5t77 -12.5q59 0 107 23t75 53t47.5 72.5t27.5 68.5t12 54l79 374l-75 17l5 22h223zM505 950h78l26 -112h-42z" />
<glyph unicode="&#xda;" horiz-adv-x="737" d="M886 716l-6 -21l-80 -17l-83 -375q-7 -31 -9 -40t-11.5 -42.5t-17 -48.5t-23.5 -45t-32 -45.5t-42 -37t-55 -32.5t-68 -19t-84 -8q-58 0 -101 12.5t-68.5 31t-40 48.5t-19 56t-1.5 63t7 60.5t12 55.5l77 365l-76 17l5 22h225l-5 -21l-82 -17l-82 -375q-5 -24 -7 -35.5 t-4.5 -45t0.5 -53.5t13 -49t28.5 -46t51.5 -29.5t77 -12.5q59 0 107 23t75 53t47.5 72.5t27.5 68.5t12 54l79 374l-75 17l5 22h223zM554 950h80q-99 -102 -111 -112h-42q14 20 73 112z" />
<glyph unicode="&#xdb;" horiz-adv-x="737" d="M886 716l-6 -21l-80 -17l-83 -375q-7 -31 -9 -40t-11.5 -42.5t-17 -48.5t-23.5 -45t-32 -45.5t-42 -37t-55 -32.5t-68 -19t-84 -8q-58 0 -101 12.5t-68.5 31t-40 48.5t-19 56t-1.5 63t7 60.5t12 55.5l77 365l-76 17l5 22h225l-5 -21l-82 -17l-82 -375q-5 -24 -7 -35.5 t-4.5 -45t0.5 -53.5t13 -49t28.5 -46t51.5 -29.5t77 -12.5q59 0 107 23t75 53t47.5 72.5t27.5 68.5t12 54l79 374l-75 17l5 22h223zM593 953l75 -129h-43l-60 108l-106 -108h-43l131 129h46z" />
<glyph unicode="&#xdc;" horiz-adv-x="737" d="M886 716l-6 -21l-80 -17l-83 -375q-7 -31 -9 -40t-11.5 -42.5t-17 -48.5t-23.5 -45t-32 -45.5t-42 -37t-55 -32.5t-68 -19t-84 -8q-58 0 -101 12.5t-68.5 31t-40 48.5t-19 56t-1.5 63t7 60.5t12 55.5l77 365l-76 17l5 22h225l-5 -21l-82 -17l-82 -375q-5 -24 -7 -35.5 t-4.5 -45t0.5 -53.5t13 -49t28.5 -46t51.5 -29.5t77 -12.5q59 0 107 23t75 53t47.5 72.5t27.5 68.5t12 54l79 374l-75 17l5 22h223zM630 914h67l-17 -81h-67zM425 914h66l-17 -81h-66zM630 914h67l-17 -81h-67zM425 914h66l-17 -81h-66z" />
<glyph unicode="&#xdd;" horiz-adv-x="710" d="M405 39l73 -18l-4 -21h-222l4 21l81 18l48 227l-179 413l-66 16l5 21h212l-5 -20l-80 -15l155 -372l317 372l-68 15l5 20h209l-5 -20l-71 -17l-361 -413zM540 950h80q-99 -102 -111 -112h-42q14 20 73 112z" />
<glyph unicode="&#xdf;" horiz-adv-x="592" d="M264 498l-105 -498h-148l4 21l82 19l87 410q10 46 16 70.5t18 62t24 57.5t32 45t43.5 37.5t57.5 21t75 8.5q22 0 42.5 -3t44 -10.5t40 -21t30.5 -34.5t15.5 -50t-5.5 -69q-11 -57 -60 -109t-117 -60q69 -8 109.5 -63.5t24.5 -128.5q-46 -211 -296 -211q8 26 21.5 72.5 t20.5 68.5h21v-86q129 42 155 158q7 31 7.5 50t-10 42.5t-43 41.5t-88.5 33l11 53q158 6 187 140q15 72 -20 103.5t-101 31.5q-43 0 -71 -10.5t-47.5 -37t-31.5 -61t-25 -93.5z" />
<glyph unicode="&#xe0;" d="M498 275l36 168q-70 36 -134 36q-49 0 -88 -19t-62 -51t-36.5 -64.5t-20.5 -69.5q-54 -246 63 -246q45 0 89 28t74.5 68t51 80t27.5 70zM605 471l-91 -431q11 -2 36.5 -8.5t38.5 -9.5l-4 -22h-145l25 118q-39 -58 -100 -95.5t-136 -37.5q-55 0 -83.5 24.5t-36.5 89 t18 176.5q29 137 101.5 196.5t164.5 59.5q49 0 92 -15t73 -30t47 -15zM350 751h78l26 -112h-42z" />
<glyph unicode="&#xe1;" d="M498 275l36 168q-70 36 -134 36q-49 0 -88 -19t-62 -51t-36.5 -64.5t-20.5 -69.5q-54 -246 63 -246q45 0 89 28t74.5 68t51 80t27.5 70zM605 471l-91 -431q11 -2 36.5 -8.5t38.5 -9.5l-4 -22h-145l25 118q-39 -58 -100 -95.5t-136 -37.5q-55 0 -83.5 24.5t-36.5 89 t18 176.5q29 137 101.5 196.5t164.5 59.5q49 0 92 -15t73 -30t47 -15zM398 751h80q-99 -102 -111 -112h-42q14 20 73 112z" />
<glyph unicode="&#xe2;" d="M498 275l36 168q-70 36 -134 36q-49 0 -88 -19t-62 -51t-36.5 -64.5t-20.5 -69.5q-54 -246 63 -246q45 0 89 28t74.5 68t51 80t27.5 70zM605 471l-91 -431q11 -2 36.5 -8.5t38.5 -9.5l-4 -22h-145l25 118q-39 -58 -100 -95.5t-136 -37.5q-55 0 -83.5 24.5t-36.5 89 t18 176.5q29 137 101.5 196.5t164.5 59.5q49 0 92 -15t73 -30t47 -15zM438 754l75 -129h-43l-60 108l-106 -108h-43l131 129h46z" />
<glyph unicode="&#xe3;" d="M498 275l36 168q-70 36 -134 36q-49 0 -88 -19t-62 -51t-36.5 -64.5t-20.5 -69.5q-54 -246 63 -246q45 0 89 28t74.5 68t51 80t27.5 70zM605 471l-91 -431q11 -2 36.5 -8.5t38.5 -9.5l-4 -22h-145l25 118q-39 -58 -100 -95.5t-136 -37.5q-55 0 -83.5 24.5t-36.5 89 t18 176.5q29 137 101.5 196.5t164.5 59.5q49 0 92 -15t73 -30t47 -15zM256 662l8 43q20 20 62 20q26 0 75.5 -14t77.5 -14q41 0 65 10l-8 -38q-34 -23 -67 -23q-30 0 -78 13t-79 13q-30 0 -56 -10z" />
<glyph unicode="&#xe4;" d="M498 275l36 168q-70 36 -134 36q-49 0 -88 -19t-62 -51t-36.5 -64.5t-20.5 -69.5q-54 -246 63 -246q45 0 89 28t74.5 68t51 80t27.5 70zM605 471l-91 -431q11 -2 36.5 -8.5t38.5 -9.5l-4 -22h-145l25 118q-39 -58 -100 -95.5t-136 -37.5q-55 0 -83.5 24.5t-36.5 89 t18 176.5q29 137 101.5 196.5t164.5 59.5q49 0 92 -15t73 -30t47 -15zM475 715h67l-17 -81h-67zM270 715h66l-17 -81h-66zM475 715h67l-17 -81h-67zM270 715h66l-17 -81h-66z" />
<glyph unicode="&#xe5;" d="M498 275l36 168q-70 36 -134 36q-49 0 -88 -19t-62 -51t-36.5 -64.5t-20.5 -69.5q-54 -246 63 -246q45 0 89 28t74.5 68t51 80t27.5 70zM605 471l-91 -431q11 -2 36.5 -8.5t38.5 -9.5l-4 -22h-145l25 118q-39 -58 -100 -95.5t-136 -37.5q-55 0 -83.5 24.5t-36.5 89 t18 176.5q29 137 101.5 196.5t164.5 59.5q49 0 92 -15t73 -30t47 -15zM338 748q-4 -21 -4.5 -38t2 -29t9 -22t12 -15.5t15.5 -10t15 -6t15.5 -2.5t12 -1h8.5q9 0 18.5 1t30.5 7.5t37 18.5t32 37t23 60q4 20 4.5 37t-2.5 29t-9.5 21.5t-13 15.5t-16 10t-16 6t-15.5 3t-12.5 1 h-8.5q-13 0 -26 -2.5t-37.5 -12.5t-44.5 -37.5t-29 -70.5zM479 887q73 -1 99 -35.5t11 -104.5q-13 -63 -55 -101t-114 -38q-137 0 -110 139q30 138 169 140z" />
<glyph unicode="&#xe6;" horiz-adv-x="846" d="M349 491q-91 0 -173 -82l-36 34q93 89 218 89q119 0 180 -92q101 92 214 92q214 0 150 -262q-200 0 -372 -16q-6 -29 -9 -45t-6.5 -40t-3 -37t2 -31t8 -27.5t16.5 -20.5t24.5 -16t35.5 -8.5t47 -3.5q52 0 97.5 26t73.5 56q6 -5 17 -17.5t18 -18.5q-93 -87 -215 -87 q-116 0 -185 90q-97 -90 -209 -90q-210 0 -155 241l376 35q7 33 10.5 51t7 44.5t2 40.5t-5.5 32t-14 27.5t-24.5 19t-37 13t-52.5 3.5zM550 304l305 16q16 166 -113 166q-41 0 -76 -18.5t-58 -48t-37 -58.5t-21 -57zM444 210l-307 -29q-5 -33 2 -65t35.5 -59t77.5 -27 q55 0 98 32.5t62.5 69.5t31.5 78z" />
<glyph unicode="&#xe7;" horiz-adv-x="529" d="M338 31q88 0 184 43l-11 -58q-104 -31 -183 -31q-135 0 -187.5 68t-22.5 211q31 146 112.5 207.5t214.5 61.5q87 0 155 -42q-3 -9 -29 -105h-21l-3 72q-60 29 -112 29q-43 0 -78 -8.5t-70 -31t-61 -68t-40 -113.5q-14 -58 -10 -99t14.5 -67.5t35 -41.5t51 -21t61.5 -6z M275 -83q-21 0 -38 -4q1 0 72 95h7l-58 -78q61 7 84.5 -16.5t16.5 -56.5q-13 -65 -96 -73q-39 0 -62 8l4 20q21 -10 46 -10q60 0 72 55q13 60 -48 60z" />
<glyph unicode="&#xe8;" horiz-adv-x="541" d="M191 305l308 1q29 180 -108 180q-82 0 -132 -51.5t-68 -129.5zM293 25q97 0 170 81l37 -35q-93 -87 -216 -87q-126 0 -165.5 67t-13.5 196q59 285 296 285q207 0 147 -269l-373 1q-11 -48 -15.5 -79.5t-2 -64.5t16.5 -52t43.5 -31t75.5 -12zM365 751h78l26 -112h-42z" />
<glyph unicode="&#xe9;" horiz-adv-x="541" d="M191 305l308 1q29 180 -108 180q-82 0 -132 -51.5t-68 -129.5zM293 25q97 0 170 81l37 -35q-93 -87 -216 -87q-126 0 -165.5 67t-13.5 196q59 285 296 285q207 0 147 -269l-373 1q-11 -48 -15.5 -79.5t-2 -64.5t16.5 -52t43.5 -31t75.5 -12zM414 751h80 q-99 -102 -111 -112h-42q14 20 73 112z" />
<glyph unicode="&#xea;" horiz-adv-x="541" d="M191 305l308 1q29 180 -108 180q-82 0 -132 -51.5t-68 -129.5zM293 25q97 0 170 81l37 -35q-93 -87 -216 -87q-126 0 -165.5 67t-13.5 196q59 285 296 285q207 0 147 -269l-373 1q-11 -48 -15.5 -79.5t-2 -64.5t16.5 -52t43.5 -31t75.5 -12zM453 754l75 -129h-43l-60 108 l-106 -108h-43l131 129h46z" />
<glyph unicode="&#xeb;" horiz-adv-x="541" d="M191 305l308 1q29 180 -108 180q-82 0 -132 -51.5t-68 -129.5zM293 25q97 0 170 81l37 -35q-93 -87 -216 -87q-126 0 -165.5 67t-13.5 196q59 285 296 285q207 0 147 -269l-373 1q-11 -48 -15.5 -79.5t-2 -64.5t16.5 -52t43.5 -31t75.5 -12zM490 715h67l-17 -81h-67z M285 715h66l-17 -81h-66zM490 715h67l-17 -81h-67zM285 715h66l-17 -81h-66z" />
<glyph unicode="&#xec;" horiz-adv-x="261" d="M203 477l-76 19l4 21h148l-101 -477l76 -19l-4 -21h-228l4 21l84 19zM225 751h78l26 -112h-42z" />
<glyph unicode="&#xed;" horiz-adv-x="261" d="M203 477l-76 19l4 21h148l-101 -477l76 -19l-4 -21h-228l4 21l84 19zM276 751h80q-99 -102 -111 -112h-42q14 20 73 112z" />
<glyph unicode="&#xee;" horiz-adv-x="261" d="M203 477l-76 19l4 21h148l-101 -477l76 -19l-4 -21h-228l4 21l84 19zM313 754l75 -129h-43l-60 108l-106 -108h-43l131 129h46z" />
<glyph unicode="&#xef;" horiz-adv-x="261" d="M203 477l-76 19l4 21h148l-101 -477l76 -19l-4 -21h-228l4 21l84 19zM350 715h67l-17 -81h-67zM145 715h66l-17 -81h-66zM350 715h67l-17 -81h-67zM145 715h66l-17 -81h-66z" />
<glyph unicode="&#xf1;" horiz-adv-x="595" d="M523 40l76 -18l-4 -22h-144l67 319q17 77 -6.5 120t-84.5 43q-68 0 -129.5 -46t-73.5 -106l-62 -290l79 -19l-4 -21h-228l4 22l84 16l93 439q-9 2 -36.5 8.5t-41.5 9.5l4 22h140l-8 -102q41 51 100 84t120 33q75 0 105.5 -55t7.5 -165zM299 662l8 43q20 20 62 20 q26 0 75.5 -14t77.5 -14q41 0 65 10l-8 -38q-34 -23 -67 -23q-30 0 -78 13t-79 13q-30 0 -56 -10z" />
<glyph unicode="&#xf2;" horiz-adv-x="585" d="M186 261q-11 -53 -12 -93t8.5 -64.5t21.5 -40.5t32.5 -23t37 -9t39.5 -2q25 0 40 1.5t43.5 14t48.5 35t42 69t36 112.5q10 46 11.5 82.5t-2.5 60t-16 40.5t-23 25t-30.5 12.5t-31 5t-30.5 0.5h-24.5t-25 -2t-27 -5.5t-26 -11.5t-26.5 -18.5t-24 -28t-24 -39.5t-20 -53 t-18 -68zM411 533q247 0 189 -272q-29 -142 -97 -210t-200 -68q-66 0 -111 22.5t-63.5 61t-23 89t9.5 105.5q29 136 98.5 204t197.5 68zM387 751h78l26 -112h-42z" />
<glyph unicode="&#xf3;" horiz-adv-x="585" d="M186 261q-11 -53 -12 -93t8.5 -64.5t21.5 -40.5t32.5 -23t37 -9t39.5 -2q25 0 40 1.5t43.5 14t48.5 35t42 69t36 112.5q10 46 11.5 82.5t-2.5 60t-16 40.5t-23 25t-30.5 12.5t-31 5t-30.5 0.5h-24.5t-25 -2t-27 -5.5t-26 -11.5t-26.5 -18.5t-24 -28t-24 -39.5t-20 -53 t-18 -68zM411 533q247 0 189 -272q-29 -142 -97 -210t-200 -68q-66 0 -111 22.5t-63.5 61t-23 89t9.5 105.5q29 136 98.5 204t197.5 68zM436 751h80q-99 -102 -111 -112h-42q14 20 73 112z" />
<glyph unicode="&#xf4;" horiz-adv-x="585" d="M186 261q-11 -53 -12 -93t8.5 -64.5t21.5 -40.5t32.5 -23t37 -9t39.5 -2q25 0 40 1.5t43.5 14t48.5 35t42 69t36 112.5q10 46 11.5 82.5t-2.5 60t-16 40.5t-23 25t-30.5 12.5t-31 5t-30.5 0.5h-24.5t-25 -2t-27 -5.5t-26 -11.5t-26.5 -18.5t-24 -28t-24 -39.5t-20 -53 t-18 -68zM411 533q247 0 189 -272q-29 -142 -97 -210t-200 -68q-66 0 -111 22.5t-63.5 61t-23 89t9.5 105.5q29 136 98.5 204t197.5 68zM475 754l75 -129h-43l-60 108l-106 -108h-43l131 129h46z" />
<glyph unicode="&#xf5;" horiz-adv-x="585" d="M186 261q-11 -53 -12 -93t8.5 -64.5t21.5 -40.5t32.5 -23t37 -9t39.5 -2q25 0 40 1.5t43.5 14t48.5 35t42 69t36 112.5q10 46 11.5 82.5t-2.5 60t-16 40.5t-23 25t-30.5 12.5t-31 5t-30.5 0.5h-24.5t-25 -2t-27 -5.5t-26 -11.5t-26.5 -18.5t-24 -28t-24 -39.5t-20 -53 t-18 -68zM411 533q247 0 189 -272q-29 -142 -97 -210t-200 -68q-66 0 -111 22.5t-63.5 61t-23 89t9.5 105.5q29 136 98.5 204t197.5 68zM294 662l8 43q20 20 62 20q26 0 75.5 -14t77.5 -14q41 0 65 10l-8 -38q-34 -23 -67 -23q-30 0 -78 13t-79 13q-30 0 -56 -10z" />
<glyph unicode="&#xf6;" horiz-adv-x="585" d="M186 261q-11 -53 -12 -93t8.5 -64.5t21.5 -40.5t32.5 -23t37 -9t39.5 -2q25 0 40 1.5t43.5 14t48.5 35t42 69t36 112.5q10 46 11.5 82.5t-2.5 60t-16 40.5t-23 25t-30.5 12.5t-31 5t-30.5 0.5h-24.5t-25 -2t-27 -5.5t-26 -11.5t-26.5 -18.5t-24 -28t-24 -39.5t-20 -53 t-18 -68zM411 533q247 0 189 -272q-29 -142 -97 -210t-200 -68q-66 0 -111 22.5t-63.5 61t-23 89t9.5 105.5q29 136 98.5 204t197.5 68zM512 715h67l-17 -81h-67zM307 715h66l-17 -81h-66zM512 715h67l-17 -81h-67zM307 715h66l-17 -81h-66z" />
<glyph unicode="&#xf8;" horiz-adv-x="585" d="M143 -20l422 553h16l-422 -552q-8 0 -9.5 -0.5t-6.5 -0.5zM186 261q-11 -53 -12 -93t8.5 -64.5t21.5 -40.5t32.5 -23t37 -9t39.5 -2q25 0 40 1.5t43.5 14t48.5 35t42 69t36 112.5q10 46 11.5 82.5t-2.5 60t-16 40.5t-23 25t-30.5 12.5t-31 5t-30.5 0.5h-24.5t-25 -2 t-27 -5.5t-26 -11.5t-26.5 -18.5t-24 -28t-24 -39.5t-20 -53t-18 -68zM411 533q247 0 189 -272q-29 -142 -97 -210t-200 -68q-66 0 -111 22.5t-63.5 61t-23 89t9.5 105.5q29 136 98.5 204t197.5 68z" />
<glyph unicode="&#xf9;" horiz-adv-x="594" d="M552 480l-107 17l4 20h175l-101 -477l76 -19l-4 -21h-140l8 97q-39 -52 -102 -83.5t-118 -31.5q-73 0 -108 51t-10 163l60 281l-72 19l4 21h143l-70 -330q-19 -77 -1 -118.5t81 -41.5q71 0 138.5 49t84.5 127zM392 751h78l26 -112h-42z" />
<glyph unicode="&#xfa;" horiz-adv-x="594" d="M552 480l-107 17l4 20h175l-101 -477l76 -19l-4 -21h-140l8 97q-39 -52 -102 -83.5t-118 -31.5q-73 0 -108 51t-10 163l60 281l-72 19l4 21h143l-70 -330q-19 -77 -1 -118.5t81 -41.5q71 0 138.5 49t84.5 127zM440 751h80q-99 -102 -111 -112h-42q14 20 73 112z" />
<glyph unicode="&#xfb;" horiz-adv-x="594" d="M552 480l-107 17l4 20h175l-101 -477l76 -19l-4 -21h-140l8 97q-39 -52 -102 -83.5t-118 -31.5q-73 0 -108 51t-10 163l60 281l-72 19l4 21h143l-70 -330q-19 -77 -1 -118.5t81 -41.5q71 0 138.5 49t84.5 127zM480 754l75 -129h-43l-60 108l-106 -108h-43l131 129h46z " />
<glyph unicode="&#xfc;" horiz-adv-x="594" d="M552 480l-107 17l4 20h175l-101 -477l76 -19l-4 -21h-140l8 97q-39 -52 -102 -83.5t-118 -31.5q-73 0 -108 51t-10 163l60 281l-72 19l4 21h143l-70 -330q-19 -77 -1 -118.5t81 -41.5q71 0 138.5 49t84.5 127zM517 715h67l-17 -81h-67zM312 715h66l-17 -81h-66zM517 715 h67l-17 -81h-67zM312 715h66l-17 -81h-66z" />
<glyph unicode="&#xfd;" horiz-adv-x="570" d="M703 497l-76 -17l-372 -654l85 -18l-5 -22h-228l4 21l81 16l66 119l-101 538l-70 14l4 23h224l-4 -20l-87 -18l76 -482l258 479l-79 19l4 22h224zM428 751h80q-99 -102 -111 -112h-42q14 20 73 112z" />
<glyph unicode="&#xff;" horiz-adv-x="570" d="M703 497l-76 -17l-372 -654l85 -18l-5 -22h-228l4 21l81 16l66 119l-101 538l-70 14l4 23h224l-4 -20l-87 -18l76 -482l258 479l-79 19l4 22h224zM505 715h67l-17 -81h-67zM300 715h66l-17 -81h-66zM505 715h67l-17 -81h-67zM300 715h66l-17 -81h-66z" />
<glyph unicode="&#x131;" horiz-adv-x="261" d="M203 477l-76 19l4 21h148l-101 -477l76 -19l-4 -21h-228l4 21l84 19z" />
<glyph unicode="&#x160;" horiz-adv-x="608" d="M117 154l3 -72q78 -54 178 -54q82 0 146.5 41t78.5 101q3 18 4 31t-4.5 35t-20 38.5t-47 35t-79.5 31.5q-113 34 -161.5 82t-30.5 128q15 74 93 127t193 53q161 0 216 -41l-29 -106h-22l-2 72q-75 36 -172 36q-71 0 -128.5 -39t-71.5 -103q-13 -62 17.5 -93t107.5 -55 q51 -16 83.5 -30t72 -40.5t54 -67.5t3.5 -94q-12 -55 -48.5 -95t-85 -59.5t-92 -27.5t-85.5 -8q-143 0 -213 58l22 116h20zM632 953l-131 -129h-46l-75 129h43l60 -108l106 108h43z" />
<glyph unicode="&#x161;" horiz-adv-x="492" d="M486 381l-2 73q-81 32 -139 32q-50 0 -82 -19t-45 -72q-9 -44 13.5 -62t85.5 -34q105 -25 148 -61t31 -95q-16 -74 -79.5 -116t-156.5 -42q-66 0 -117.5 17t-77.5 35q2 4 32 115h21l3 -72q84 -45 149 -45q136 0 156 105q7 29 -17.5 52t-59 35t-89.5 25q-66 14 -94.5 52 t-17.5 91q5 20 16 39.5t33 42.5t62.5 37t93.5 14q23 0 45 -2.5t38.5 -6t34 -9.5t27 -9.5t22.5 -9t15 -6.5q-5 -18 -13 -52t-14 -52h-22zM532 754l-131 -129h-46l-75 129h43l60 -108l106 108h43z" />
<glyph unicode="&#x178;" horiz-adv-x="710" d="M405 39l73 -18l-4 -21h-222l4 21l81 18l48 227l-179 413l-66 16l5 21h212l-5 -20l-80 -15l155 -372l317 372l-68 15l5 20h209l-5 -20l-71 -17l-361 -413zM617 914h67l-17 -81h-67zM412 914h66l-17 -81h-66zM617 914h67l-17 -81h-67zM412 914h66l-17 -81h-66z" />
<glyph unicode="&#x17d;" horiz-adv-x="675" d="M615 50l56 94l-19 -144h-607l10 50l662 623h-480l-35 -76h-19l14 119h607l-9 -46l-657 -620h477zM665 953l-131 -129h-46l-75 129h43l60 -108l106 108h43z" />
<glyph unicode="&#x17e;" horiz-adv-x="478" d="M410 53l35 79h21l-16 -132h-404l11 53l416 420h-277l-36 -79h-22l19 123h409l-8 -42l-417 -422h269zM525 754l-131 -129h-46l-75 129h43l60 -108l106 108h43z" />
<glyph unicode="&#x192;" horiz-adv-x="322" d="M580 748l-9 -51q-51 30 -105 30q-48 0 -79 -9.5t-48.5 -36t-24 -45.5t-16.5 -65q-1 -5 -2 -8l-10 -46h129l-9 -43h-129l-105 -495q-13 -54 -35.5 -93.5t-49.5 -59.5t-46 -28.5t-39 -12.5l9 45q37 29 54 55t42 87l106 502h-86l9 43h86l10 46q27 122 85 169t160 47 q47 0 103 -31z" />
<glyph unicode="&#x2c6;" horiz-adv-x="245" d="M308 754l75 -129h-43l-60 108l-106 -108h-43l131 129h46z" />
<glyph unicode="&#x2c7;" horiz-adv-x="241" d="M411 754l-131 -129h-46l-75 129h43l60 -108l106 108h43z" />
<glyph unicode="&#x2da;" horiz-adv-x="400" d="M221 592q-4 -21 -4.5 -38t2 -29t9 -22t12 -15.5t15.5 -10t15 -6t15.5 -2.5t12 -1h8.5q9 0 18.5 1t30.5 7.5t37 18.5t32 37t23 60q4 20 4.5 37t-2.5 29t-9.5 21.5t-13 15.5t-16 10t-16 6t-15.5 3t-12.5 1h-8.5q-13 0 -26 -2.5t-37.5 -12.5t-44.5 -37.5t-29 -70.5zM362 731 q73 -1 99 -35.5t11 -104.5q-13 -63 -55 -101t-114 -38q-137 0 -110 139q30 138 169 140z" />
<glyph unicode="&#x2dc;" horiz-adv-x="222" d="M123 662l8 43q20 20 62 20q26 0 75.5 -14t77.5 -14q41 0 65 10l-8 -38q-34 -23 -67 -23q-30 0 -78 13t-79 13q-30 0 -56 -10z" />
<glyph unicode="&#x300;" horiz-adv-x="222" d="M163 751h78l26 -112h-42z" />
<glyph unicode="&#x301;" horiz-adv-x="222" d="M297 751h80q-99 -102 -111 -112h-42q14 20 73 112z" />
<glyph unicode="&#x302;" horiz-adv-x="245" d="M308 754l75 -129h-43l-60 108l-106 -108h-43l131 129h46z" />
<glyph unicode="&#x303;" horiz-adv-x="222" d="M123 662l8 43q20 20 62 20q26 0 75.5 -14t77.5 -14q41 0 65 10l-8 -38q-34 -23 -67 -23q-30 0 -78 13t-79 13q-30 0 -56 -10z" />
<glyph unicode="&#x308;" horiz-adv-x="0" />
<glyph unicode="&#x30a;" horiz-adv-x="400" d="M221 592q-4 -21 -4.5 -38t2 -29t9 -22t12 -15.5t15.5 -10t15 -6t15.5 -2.5t12 -1h8.5q9 0 18.5 1t30.5 7.5t37 18.5t32 37t23 60q4 20 4.5 37t-2.5 29t-9.5 21.5t-13 15.5t-16 10t-16 6t-15.5 3t-12.5 1h-8.5q-13 0 -26 -2.5t-37.5 -12.5t-44.5 -37.5t-29 -70.5zM362 731 q73 -1 99 -35.5t11 -104.5q-13 -63 -55 -101t-114 -38q-137 0 -110 139q30 138 169 140z" />
<glyph unicode="&#x30c;" horiz-adv-x="241" d="M411 754l-131 -129h-46l-75 129h43l60 -108l106 108h43z" />
<glyph unicode="&#x327;" horiz-adv-x="245" d="M89 -91q-21 0 -38 -4q1 0 72 95h7l-58 -78q61 7 84.5 -16.5t16.5 -56.5q-13 -65 -96 -73q-39 0 -62 8l4 20q21 -10 46 -10q60 0 72 55q13 60 -48 60z" />
<glyph unicode="&#x338;" horiz-adv-x="0" />
<glyph unicode="&#x2013;" horiz-adv-x="500" d="M75 304h500l-11 -51h-500z" />
<glyph unicode="&#x2014;" horiz-adv-x="1000" d="M196 253l11 51h759l-11 -51h-759z" />
<glyph unicode="&#x2018;" horiz-adv-x="278" d="M238 533h63l-18 -85h-88q1 53 12 100q35 158 146 173l-9 -39q-21 -2 -38 -12.5t-27 -22t-18.5 -34t-12.5 -37.5t-10 -43z" />
<glyph unicode="&#x2019;" horiz-adv-x="278" d="M238 637l18 85h87q-5 -65 -14 -102q-30 -150 -145 -171l8 36q22 2 39 13t26.5 22t18.5 35.5t12 37.5t10 44h-60z" />
<glyph unicode="&#x201a;" horiz-adv-x="278" d="M106 0l17 84h87q-5 -69 -13 -99q-17 -83 -56.5 -124t-88.5 -48l7 35q22 2 39.5 13.5t26.5 22t18.5 37t12 36.5t10.5 43h-60z" />
<glyph unicode="&#x201c;" horiz-adv-x="440" d="M336 721l-8 -38q-28 -4 -46.5 -16.5t-30.5 -37t-17 -42.5t-13 -54h62l-18 -85h-87q1 54 11 100q19 83 59 124.5t88 48.5zM430 533h60l-18 -85h-87q7 73 14 100q34 158 145 173l-8 -38q-21 -3 -38 -13.5t-27 -22.5t-18.5 -33.5t-12.5 -37t-10 -43.5z" />
<glyph unicode="&#x201d;" horiz-adv-x="444" d="M425 637l18 85h88q0 -44 -13 -102q-30 -151 -145 -171l8 36q22 2 39 13t26.5 22t18.5 35.5t12 37.5t10 44h-62zM219 637l18 85h87q-8 -77 -14 -102q-29 -148 -146 -171l8 36q22 2 38.5 12.5t26.5 22.5t19 35.5t13 38t10 43.5h-60z" />
<glyph unicode="&#x201e;" horiz-adv-x="487" d="M102 0l17 84h86q-3 -58 -12 -99q-17 -83 -56.5 -124t-88.5 -48l7 35q22 2 39 13.5t26.5 22t18.5 37t11.5 36.5t10.5 43h-59zM328 0l17 84h87q-1 -56 -11 -99q-16 -84 -56.5 -124.5t-89.5 -47.5l7 35q27 3 45.5 16t30 37t17 44t11.5 54q-8 0 -28 0.5t-30 0.5z" />
<glyph unicode="&#x2022;" horiz-adv-x="500" d="M78 364q0 75 53 128t128 53t128 -53t53 -128t-53 -128t-128 -53t-128 53t-53 128z" />
<glyph unicode="&#x2026;" horiz-adv-x="813" d="M92 -1l18 84h85l-18 -84h-85zM386 -1l18 84h85l-18 -84h-85zM680 -1l18 84h84l-18 -84h-84z" />
<glyph unicode="&#x2039;" horiz-adv-x="306" d="M128 282q3 12 17 20l195 121q-8 -39 -21 -45l-156 -96q77 -67 112 -92q14 -13 5 -50l-143 122q-11 8 -9 20z" />
<glyph unicode="&#x203a;" horiz-adv-x="311" d="M316 282q-2 -12 -17 -20l-195 -122q9 39 27 50q14 8 72.5 43.5t77.5 48.5l-114 96q-11 6 -3 45l145 -121q10 -7 7 -20z" />
<glyph unicode="&#x2044;" horiz-adv-x="347" d="M-15 -20l515 773h17l-516 -772q-7 0 -8.5 -0.5t-7.5 -0.5z" />
<glyph unicode="&#x20ac;" horiz-adv-x="615" d="M155 481h61q118 288 349 288q74 0 188 -35l-14 -62q-104 53 -183 53q-24 0 -44.5 -3.5t-49.5 -18.5t-55 -39.5t-55.5 -71.5t-54.5 -111h251l-12 -21h-244q-4 -19 -10.5 -44t-9.5 -38.5t-7 -35.5t-7 -49h195q-6 -14 -10 -21h-187q2 -60 17.5 -104.5t33.5 -65.5t42 -33 t36.5 -14t24.5 -2h3q106 0 219 77l-15 -70q-100 -60 -215 -60q-103 0 -164.5 72t-67.5 200h-73l19 21h58q15 98 36 167h-73z" />
<glyph unicode="&#x2260;" horiz-adv-x="598" d="M59 169h501v-41h-501v41zM59 378h501v-43h-501v43z" />
<glyph unicode="&#x25fc;" horiz-adv-x="515" d="M0 515h515v-515h-515v515z" />
</font>
</defs>
</svg>
